<svg width="250" height="250" viewBox="0 0 250 250" fill="none" xmlns="http://www.w3.org/2000/svg">
<g clip-path="url(#clip0_6441_120632)">
<rect x="45" y="33" width="160" height="160" rx="80" fill="#F3F4F4"/>
<rect x="57" y="91.3999" width="284.8" height="132" rx="12.8" fill="#FEFEFE"/>
<rect x="66.5996" y="101" width="44.16" height="8" rx="4" fill="#F3D4A1"/>
<rect x="112.359" y="101" width="8" height="8" rx="4" fill="#E8BA71"/>
<rect x="121.959" y="101" width="44.16" height="8" rx="4" fill="#A1BBF3"/>
<rect x="167.72" y="101" width="8" height="8" rx="4" fill="#7181E8"/>
<rect x="177.319" y="101" width="44.16" height="8" rx="4" fill="#ECEFF0"/>
<rect x="66.9996" y="114.2" width="43.36" height="31.2" rx="4.4" fill="#F3D4A1" fill-opacity="0.2" stroke="#E8BA71" stroke-width="0.8"/>
<rect x="66.9996" y="149.4" width="43.36" height="31.2" rx="4.4" fill="#F3D4A1" fill-opacity="0.2" stroke="#E8BA71" stroke-width="0.8"/>
<rect x="66.9996" y="184.6" width="43.36" height="31.2" rx="4.4" fill="#F3D4A1" fill-opacity="0.2" stroke="#E8BA71" stroke-width="0.8"/>
<rect x="122.359" y="114.2" width="43.36" height="31.2" rx="4.4" fill="#A1BBF3" fill-opacity="0.2" stroke="#7181E8" stroke-width="0.8"/>
<rect x="122.359" y="149.4" width="43.36" height="31.2" rx="4.4" fill="#A1BBF3" fill-opacity="0.2" stroke="#7181E8" stroke-width="0.8"/>
<rect x="177.719" y="114.2" width="43.36" height="31.2" rx="4.4" fill="#ECEFF0" fill-opacity="0.2" stroke="#CCCCCC" stroke-width="0.8"/>
<rect x="177.719" y="149.4" width="43.36" height="31.2" rx="4.4" fill="#ECEFF0" fill-opacity="0.2" stroke="#CCCCCC" stroke-width="0.8"/>
<rect x="177.719" y="184.6" width="43.36" height="31.2" rx="4.4" fill="#ECEFF0" fill-opacity="0.2" stroke="#CCCCCC" stroke-width="0.8"/>
</g>
<rect x="66.9996" y="114.2" width="43.36" height="31.2" rx="4.4" fill="#F3D4A1" fill-opacity="0.2" stroke="#E8BA71" stroke-width="0.8"/>
<rect x="66.9996" y="149.4" width="43.36" height="31.2" rx="4.4" fill="#F3D4A1" fill-opacity="0.2" stroke="#E8BA71" stroke-width="0.8"/>
<rect x="66.9996" y="184.6" width="43.36" height="31.2" rx="4.4" fill="#F3D4A1" fill-opacity="0.2" stroke="#E8BA71" stroke-width="0.8"/>
<rect x="122.359" y="114.2" width="43.36" height="31.2" rx="4.4" fill="#A1BBF3" fill-opacity="0.2" stroke="#7181E8" stroke-width="0.8"/>
<rect x="122.359" y="149.4" width="43.36" height="31.2" rx="4.4" fill="#A1BBF3" fill-opacity="0.2" stroke="#7181E8" stroke-width="0.8"/>
<defs>
<clipPath id="clip0_6441_120632">
<rect x="45" y="33" width="160" height="160" rx="80" fill="white"/>
</clipPath>
</defs>
</svg>
