<svg width="220" height="24" viewBox="0 0 220 24" fill="none" xmlns="http://www.w3.org/2000/svg">
<g clip-path="url(#clip0_4586_54969)">
<g clip-path="url(#clip1_4586_54969)">
<path fill-rule="evenodd" clip-rule="evenodd" d="M15.3334 7.01118C14.3467 6.3519 13.1867 6 12 6V0C14.3734 0 16.6934 0.703788 18.6668 2.02237C20.6402 3.34094 22.1783 5.21509 23.0866 7.40778C23.9948 9.60048 24.2324 12.0133 23.7694 14.3411C23.3064 16.6688 22.1635 18.8071 20.4853 20.4853C18.8071 22.1635 16.6688 23.3064 14.3411 23.7694C12.0133 24.2324 9.60048 23.9948 7.40778 23.0866C5.21509 22.1783 3.34094 20.6402 2.02237 18.6668C0.703788 16.6934 0 14.3734 0 12H6C6 13.1867 6.3519 14.3467 7.01118 15.3334C7.67046 16.3201 8.60754 17.0891 9.70392 17.5433C10.8002 17.9974 12.0067 18.1162 13.1705 17.8847C14.3344 17.6532 15.4035 17.0818 16.2427 16.2427C17.0818 15.4035 17.6532 14.3344 17.8847 13.1705C18.1162 12.0067 17.9974 10.8002 17.5433 9.70392C17.0891 8.60754 16.3201 7.67046 15.3334 7.01118Z" fill="#1761D8"/>
<path fill-rule="evenodd" clip-rule="evenodd" d="M6 2.59875e-06C6 0.787934 5.84481 1.56815 5.54328 2.2961C5.24175 3.02406 4.79979 3.68549 4.24264 4.24264C3.68549 4.7998 3.02406 5.24175 2.2961 5.54328C1.56814 5.84481 0.787929 6 2.62266e-07 6L0 12C1.57586 12 3.13629 11.6896 4.5922 11.0866C6.04812 10.4835 7.371 9.59958 8.48526 8.48526C9.59958 7.371 10.4835 6.04812 11.0866 4.59221C11.6896 3.13629 12 1.57586 12 0L6 2.59875e-06Z" fill="#1761D8"/>
</g>
<path d="M40.976 10.192C40.976 10.7573 40.8427 11.2907 40.576 11.792C40.3093 12.2933 39.8827 12.704 39.296 13.024C38.7093 13.3333 37.9573 13.488 37.04 13.488H35.024V18H33.2V6.88H37.04C37.8933 6.88 38.6133 7.02933 39.2 7.328C39.7973 7.616 40.24 8.01067 40.528 8.512C40.8267 9.01333 40.976 9.57333 40.976 10.192ZM37.04 12C37.7333 12 38.2507 11.8453 38.592 11.536C38.9333 11.216 39.104 10.768 39.104 10.192C39.104 8.976 38.416 8.368 37.04 8.368H35.024V12H37.04ZM43.6436 8.016C43.313 8.016 43.0356 7.904 42.8116 7.68C42.5876 7.456 42.4756 7.17867 42.4756 6.848C42.4756 6.51733 42.5876 6.24 42.8116 6.016C43.0356 5.792 43.313 5.68 43.6436 5.68C43.9636 5.68 44.2356 5.792 44.4596 6.016C44.6836 6.24 44.7956 6.51733 44.7956 6.848C44.7956 7.17867 44.6836 7.456 44.4596 7.68C44.2356 7.904 43.9636 8.016 43.6436 8.016ZM44.5396 9.184V18H42.7156V9.184H44.5396ZM48.7584 10.48C49.0677 10.0747 49.489 9.73333 50.0224 9.456C50.5557 9.17867 51.1584 9.04 51.8304 9.04C52.5984 9.04 53.297 9.232 53.9264 9.616C54.5664 9.98933 55.0677 10.5173 55.4304 11.2C55.793 11.8827 55.9744 12.6667 55.9744 13.552C55.9744 14.4373 55.793 15.232 55.4304 15.936C55.0677 16.6293 54.5664 17.1733 53.9264 17.568C53.297 17.952 52.5984 18.144 51.8304 18.144C51.1584 18.144 50.561 18.0107 50.0384 17.744C49.5157 17.4667 49.089 17.1253 48.7584 16.72V22.192H46.9344V9.184H48.7584V10.48ZM54.1184 13.552C54.1184 12.944 53.9904 12.4213 53.7344 11.984C53.489 11.536 53.1584 11.2 52.7424 10.976C52.337 10.7413 51.8997 10.624 51.4304 10.624C50.9717 10.624 50.5344 10.7413 50.1184 10.976C49.713 11.2107 49.3824 11.552 49.1264 12C48.881 12.448 48.7584 12.976 48.7584 13.584C48.7584 14.192 48.881 14.7253 49.1264 15.184C49.3824 15.632 49.713 15.9733 50.1184 16.208C50.5344 16.4427 50.9717 16.56 51.4304 16.56C51.8997 16.56 52.337 16.4427 52.7424 16.208C53.1584 15.9627 53.489 15.6107 53.7344 15.152C53.9904 14.6933 54.1184 14.16 54.1184 13.552ZM65.8581 13.376C65.8581 13.7067 65.8368 14.0053 65.7941 14.272H59.0581C59.1115 14.976 59.3728 15.5413 59.8421 15.968C60.3115 16.3947 60.8875 16.608 61.5701 16.608C62.5515 16.608 63.2448 16.1973 63.6501 15.376H65.6181C65.3515 16.1867 64.8661 16.8533 64.1621 17.376C63.4688 17.888 62.6048 18.144 61.5701 18.144C60.7275 18.144 59.9701 17.9573 59.2981 17.584C58.6368 17.2 58.1141 16.6667 57.7301 15.984C57.3568 15.2907 57.1701 14.4907 57.1701 13.584C57.1701 12.6773 57.3515 11.8827 57.7141 11.2C58.0875 10.5067 58.6048 9.97333 59.2661 9.6C59.9381 9.22667 60.7061 9.04 61.5701 9.04C62.4021 9.04 63.1435 9.22133 63.7941 9.584C64.4448 9.94667 64.9515 10.4587 65.3141 11.12C65.6768 11.7707 65.8581 12.5227 65.8581 13.376ZM63.9541 12.8C63.9435 12.128 63.7035 11.5893 63.2341 11.184C62.7648 10.7787 62.1835 10.576 61.4901 10.576C60.8608 10.576 60.3221 10.7787 59.8741 11.184C59.4261 11.5787 59.1595 12.1173 59.0741 12.8H63.9541ZM77.5854 18L75.0254 13.552H73.6334V18H71.8094V6.88H75.6494C76.5027 6.88 77.2227 7.02933 77.8094 7.328C78.4067 7.62667 78.8494 8.02667 79.1374 8.528C79.436 9.02933 79.5854 9.58933 79.5854 10.208C79.5854 10.9333 79.372 11.5947 78.9454 12.192C78.5294 12.7787 77.884 13.1787 77.0094 13.392L79.7614 18H77.5854ZM73.6334 12.096H75.6494C76.332 12.096 76.844 11.9253 77.1854 11.584C77.5374 11.2427 77.7134 10.784 77.7134 10.208C77.7134 9.632 77.5427 9.184 77.2014 8.864C76.86 8.53333 76.3427 8.368 75.6494 8.368H73.6334V12.096ZM89.9988 13.376C89.9988 13.7067 89.9774 14.0053 89.9348 14.272H83.1988C83.2521 14.976 83.5134 15.5413 83.9828 15.968C84.4521 16.3947 85.0281 16.608 85.7108 16.608C86.6921 16.608 87.3854 16.1973 87.7908 15.376H89.7587C89.4921 16.1867 89.0068 16.8533 88.3028 17.376C87.6094 17.888 86.7454 18.144 85.7108 18.144C84.8681 18.144 84.1108 17.9573 83.4388 17.584C82.7774 17.2 82.2548 16.6667 81.8708 15.984C81.4974 15.2907 81.3108 14.4907 81.3108 13.584C81.3108 12.6773 81.4921 11.8827 81.8548 11.2C82.2281 10.5067 82.7454 9.97333 83.4068 9.6C84.0788 9.22667 84.8468 9.04 85.7108 9.04C86.5428 9.04 87.2841 9.22133 87.9348 9.584C88.5854 9.94667 89.0921 10.4587 89.4548 11.12C89.8174 11.7707 89.9988 12.5227 89.9988 13.376ZM88.0948 12.8C88.0841 12.128 87.8441 11.5893 87.3748 11.184C86.9054 10.7787 86.3241 10.576 85.6308 10.576C85.0014 10.576 84.4628 10.7787 84.0148 11.184C83.5668 11.5787 83.3001 12.1173 83.2148 12.8H88.0948ZM91.1858 13.584C91.1858 12.6773 91.3671 11.8827 91.7298 11.2C92.1031 10.5067 92.6151 9.97333 93.2658 9.6C93.9164 9.22667 94.6631 9.04 95.5058 9.04C96.5724 9.04 97.4524 9.296 98.1458 9.808C98.8498 10.3093 99.3244 11.0293 99.5698 11.968H97.6018C97.4418 11.5307 97.1858 11.1893 96.8338 10.944C96.4818 10.6987 96.0391 10.576 95.5058 10.576C94.7591 10.576 94.1618 10.8427 93.7138 11.376C93.2764 11.8987 93.0578 12.6347 93.0578 13.584C93.0578 14.5333 93.2764 15.2747 93.7138 15.808C94.1618 16.3413 94.7591 16.608 95.5058 16.608C96.5618 16.608 97.2604 16.144 97.6018 15.216H99.5698C99.3138 16.112 98.8338 16.8267 98.1298 17.36C97.4258 17.8827 96.5511 18.144 95.5058 18.144C94.6631 18.144 93.9164 17.9573 93.2658 17.584C92.6151 17.2 92.1031 16.6667 91.7298 15.984C91.3671 15.2907 91.1858 14.4907 91.1858 13.584ZM103.212 10.464C103.478 10.016 103.83 9.66933 104.268 9.424C104.716 9.168 105.244 9.04 105.852 9.04V10.928H105.388C104.673 10.928 104.129 11.1093 103.756 11.472C103.393 11.8347 103.212 12.464 103.212 13.36V18H101.388V9.184H103.212V10.464ZM115.512 9.184V18H113.688V16.96C113.4 17.3227 113.021 17.6107 112.552 17.824C112.093 18.0267 111.603 18.128 111.08 18.128C110.387 18.128 109.763 17.984 109.208 17.696C108.664 17.408 108.232 16.9813 107.912 16.416C107.603 15.8507 107.448 15.168 107.448 14.368V9.184H109.256V14.096C109.256 14.8853 109.453 15.4933 109.848 15.92C110.243 16.336 110.781 16.544 111.464 16.544C112.147 16.544 112.685 16.336 113.08 15.92C113.485 15.4933 113.688 14.8853 113.688 14.096V9.184H115.512ZM118.847 8.016C118.516 8.016 118.239 7.904 118.015 7.68C117.791 7.456 117.679 7.17867 117.679 6.848C117.679 6.51733 117.791 6.24 118.015 6.016C118.239 5.792 118.516 5.68 118.847 5.68C119.167 5.68 119.439 5.792 119.663 6.016C119.887 6.24 119.999 6.51733 119.999 6.848C119.999 7.17867 119.887 7.456 119.663 7.68C119.439 7.904 119.167 8.016 118.847 8.016ZM119.743 9.184V18H117.919V9.184H119.743ZM124.266 10.672V15.552C124.266 15.8827 124.34 16.1227 124.49 16.272C124.65 16.4107 124.916 16.48 125.29 16.48H126.41V18H124.97C124.148 18 123.519 17.808 123.082 17.424C122.644 17.04 122.426 16.416 122.426 15.552V10.672H121.386V9.184H122.426V6.992H124.266V9.184H126.41V10.672H124.266ZM136.171 13.376C136.171 13.7067 136.149 14.0053 136.107 14.272H129.371C129.424 14.976 129.685 15.5413 130.155 15.968C130.624 16.3947 131.2 16.608 131.883 16.608C132.864 16.608 133.557 16.1973 133.963 15.376H135.931C135.664 16.1867 135.179 16.8533 134.475 17.376C133.781 17.888 132.917 18.144 131.883 18.144C131.04 18.144 130.283 17.9573 129.611 17.584C128.949 17.2 128.427 16.6667 128.043 15.984C127.669 15.2907 127.483 14.4907 127.483 13.584C127.483 12.6773 127.664 11.8827 128.027 11.2C128.4 10.5067 128.917 9.97333 129.579 9.6C130.251 9.22667 131.019 9.04 131.883 9.04C132.715 9.04 133.456 9.22133 134.107 9.584C134.757 9.94667 135.264 10.4587 135.627 11.12C135.989 11.7707 136.171 12.5227 136.171 13.376ZM134.267 12.8C134.256 12.128 134.016 11.5893 133.547 11.184C133.077 10.7787 132.496 10.576 131.803 10.576C131.173 10.576 130.635 10.7787 130.187 11.184C129.739 11.5787 129.472 12.1173 129.387 12.8H134.267ZM139.79 10.464C140.056 10.016 140.408 9.66933 140.846 9.424C141.294 9.168 141.822 9.04 142.43 9.04V10.928H141.966C141.251 10.928 140.707 11.1093 140.334 11.472C139.971 11.8347 139.79 12.464 139.79 13.36V18H137.966V9.184H139.79V10.464Z" fill="white"/>
</g>
<defs>
<clipPath id="clip0_4586_54969">
<rect width="220" height="24" fill="white"/>
</clipPath>
<clipPath id="clip1_4586_54969">
<rect width="24" height="24" fill="white"/>
</clipPath>
</defs>
</svg>
