<svg width="250" height="250" viewBox="0 0 250 250" fill="none" xmlns="http://www.w3.org/2000/svg">
<g clip-path="url(#clip0_6325_100784)">
<g clip-path="url(#clip1_6325_100784)">
<rect x="45" y="33" width="160" height="160" rx="80" fill="#F3F3F3"/>
<g filter="url(#filter0_d_6325_100784)">
<rect x="65" y="65" width="120" height="134" rx="8" fill="#FEFEFE"/>
<path d="M125 75.5C121.725 75.5 119.062 78.1625 119.062 81.4375C119.062 84.65 121.575 87.25 124.85 87.3625C124.95 87.35 125.05 87.35 125.125 87.3625C125.15 87.3625 125.162 87.3625 125.187 87.3625C125.2 87.3625 125.2 87.3625 125.213 87.3625C128.413 87.25 130.925 84.65 130.938 81.4375C130.938 78.1625 128.275 75.5 125 75.5Z" fill="#FFC67A"/>
<path d="M131.35 90.6876C127.863 88.3626 122.175 88.3626 118.663 90.6876C117.075 91.7501 116.2 93.1876 116.2 94.7251C116.2 96.2626 117.075 97.6876 118.65 98.7376C120.4 99.9126 122.7 100.5 125 100.5C127.3 100.5 129.6 99.9126 131.35 98.7376C132.925 97.6751 133.8 96.2501 133.8 94.7001C133.788 93.1626 132.925 91.7376 131.35 90.6876Z" fill="#FFC67A"/>
<rect x="73" y="109" width="104" height="10" rx="5" fill="#DEEFF4"/>
<rect x="73" y="121" width="104" height="6" rx="3" fill="#F4C9F1"/>
<rect x="73" y="129" width="51" height="6" rx="3" fill="#ECEFF0"/>
<rect x="126" y="129" width="51" height="6" rx="3" fill="#ECEFF0"/>
<rect x="73" y="137" width="34" height="6" rx="3" fill="#ECEFF0"/>
<rect x="73" y="145" width="73" height="6" rx="3" fill="#ECEFF0"/>
<rect x="73" y="157" width="104" height="10" rx="5" fill="#E0C0EE"/>
<rect x="73" y="169" width="51" height="6" rx="3" fill="#ECEFF0"/>
<rect x="126" y="169" width="51" height="6" rx="3" fill="#ECEFF0"/>
<rect x="73" y="177" width="80" height="6" rx="3" fill="#ECEFF0"/>
<rect x="73" y="185" width="60" height="6" rx="3" fill="#ECEFF0"/>
</g>
</g>
<g filter="url(#filter1_d_6325_100784)">
<rect x="65" y="155" width="120" height="58" rx="8" fill="#FEFEFE"/>
<rect x="73" y="163" width="104" height="10" rx="5" fill="#E0C0EE"/>
<rect x="73" y="175" width="51" height="6" rx="3" fill="#ECEFF0"/>
<rect x="126" y="175" width="51" height="6" rx="3" fill="#ECEFF0"/>
<rect x="73" y="183" width="80" height="6" rx="3" fill="#ECEFF0"/>
<rect x="73" y="191" width="60" height="6" rx="3" fill="#ECEFF0"/>
<rect x="73" y="199" width="89" height="6" rx="3" fill="#ECEFF0"/>
</g>
</g>
<defs>
<filter id="filter0_d_6325_100784" x="42.931" y="59.4828" width="164.138" height="178.138" filterUnits="userSpaceOnUse" color-interpolation-filters="sRGB">
<feFlood flood-opacity="0" result="BackgroundImageFix"/>
<feColorMatrix in="SourceAlpha" type="matrix" values="0 0 0 0 0 0 0 0 0 0 0 0 0 0 0 0 0 0 127 0" result="hardAlpha"/>
<feMorphology radius="19.3103" operator="erode" in="SourceAlpha" result="effect1_dropShadow_6325_100784"/>
<feOffset dy="16.5517"/>
<feGaussianBlur stdDeviation="20.6897"/>
<feComposite in2="hardAlpha" operator="out"/>
<feColorMatrix type="matrix" values="0 0 0 0 0 0 0 0 0 0 0 0 0 0 0 0 0 0 0.2 0"/>
<feBlend mode="normal" in2="BackgroundImageFix" result="effect1_dropShadow_6325_100784"/>
<feBlend mode="normal" in="SourceGraphic" in2="effect1_dropShadow_6325_100784" result="shape"/>
</filter>
<filter id="filter1_d_6325_100784" x="42.931" y="149.483" width="164.138" height="102.138" filterUnits="userSpaceOnUse" color-interpolation-filters="sRGB">
<feFlood flood-opacity="0" result="BackgroundImageFix"/>
<feColorMatrix in="SourceAlpha" type="matrix" values="0 0 0 0 0 0 0 0 0 0 0 0 0 0 0 0 0 0 127 0" result="hardAlpha"/>
<feMorphology radius="19.3103" operator="erode" in="SourceAlpha" result="effect1_dropShadow_6325_100784"/>
<feOffset dy="16.5517"/>
<feGaussianBlur stdDeviation="20.6897"/>
<feComposite in2="hardAlpha" operator="out"/>
<feColorMatrix type="matrix" values="0 0 0 0 0 0 0 0 0 0 0 0 0 0 0 0 0 0 0.2 0"/>
<feBlend mode="normal" in2="BackgroundImageFix" result="effect1_dropShadow_6325_100784"/>
<feBlend mode="normal" in="SourceGraphic" in2="effect1_dropShadow_6325_100784" result="shape"/>
</filter>
<clipPath id="clip0_6325_100784">
<rect width="250" height="250" fill="white"/>
</clipPath>
<clipPath id="clip1_6325_100784">
<rect x="45" y="33" width="160" height="160" rx="80" fill="white"/>
</clipPath>
</defs>
</svg>
