<svg width="250" height="250" viewBox="0 0 250 250" fill="none" xmlns="http://www.w3.org/2000/svg">
<g clip-path="url(#clip0_6325_100818)">
<g clip-path="url(#clip1_6325_100818)">
<rect x="45" y="33" width="160" height="160" rx="80" fill="#F3F3F3"/>
<g filter="url(#filter0_d_6325_100818)">
<rect x="65" y="65" width="120" height="136" rx="8" fill="#FEFEFE"/>
<rect x="73" y="73" width="24" height="24" rx="12" fill="#F6BDB7"/>
<rect x="119" y="73" width="58" height="74" rx="6" fill="#F7F1F1"/>
<rect x="127" y="95" width="10" height="44" rx="5" fill="#EAC88F"/>
<rect x="143" y="81" width="10" height="58" rx="5" fill="#87C8DB"/>
<rect x="159" y="106" width="10" height="33" rx="5" fill="#FAA6C6"/>
<rect x="73" y="153" width="104" height="10" rx="5" fill="#DEEFF4"/>
<rect x="73" y="165" width="51" height="8" rx="4" fill="#ECEFF0"/>
<rect x="126" y="165" width="51" height="8" rx="4" fill="#ECEFF0"/>
<rect x="73" y="175" width="34" height="8" rx="4" fill="#ECEFF0"/>
<rect x="73" y="185" width="59" height="8" rx="4" fill="#ECEFF0"/>
</g>
</g>
<g filter="url(#filter1_d_6325_100818)">
<rect x="65" y="149" width="120" height="66" rx="8" fill="#FEFEFE"/>
<rect x="73" y="157" width="104" height="10" rx="5" fill="#DEEFF4"/>
<rect x="73" y="169" width="51" height="8" rx="4" fill="#ECEFF0"/>
<rect x="126" y="169" width="51" height="8" rx="4" fill="#ECEFF0"/>
<rect x="73" y="179" width="34" height="8" rx="4" fill="#ECEFF0"/>
<rect x="73" y="189" width="75" height="8" rx="4" fill="#ECEFF0"/>
<rect x="73" y="199" width="59" height="8" rx="4" fill="#ECEFF0"/>
</g>
</g>
<defs>
<filter id="filter0_d_6325_100818" x="42.931" y="59.4828" width="164.138" height="180.138" filterUnits="userSpaceOnUse" color-interpolation-filters="sRGB">
<feFlood flood-opacity="0" result="BackgroundImageFix"/>
<feColorMatrix in="SourceAlpha" type="matrix" values="0 0 0 0 0 0 0 0 0 0 0 0 0 0 0 0 0 0 127 0" result="hardAlpha"/>
<feMorphology radius="19.3103" operator="erode" in="SourceAlpha" result="effect1_dropShadow_6325_100818"/>
<feOffset dy="16.5517"/>
<feGaussianBlur stdDeviation="20.6897"/>
<feComposite in2="hardAlpha" operator="out"/>
<feColorMatrix type="matrix" values="0 0 0 0 0 0 0 0 0 0 0 0 0 0 0 0 0 0 0.2 0"/>
<feBlend mode="normal" in2="BackgroundImageFix" result="effect1_dropShadow_6325_100818"/>
<feBlend mode="normal" in="SourceGraphic" in2="effect1_dropShadow_6325_100818" result="shape"/>
</filter>
<filter id="filter1_d_6325_100818" x="42.931" y="143.483" width="164.138" height="110.138" filterUnits="userSpaceOnUse" color-interpolation-filters="sRGB">
<feFlood flood-opacity="0" result="BackgroundImageFix"/>
<feColorMatrix in="SourceAlpha" type="matrix" values="0 0 0 0 0 0 0 0 0 0 0 0 0 0 0 0 0 0 127 0" result="hardAlpha"/>
<feMorphology radius="19.3103" operator="erode" in="SourceAlpha" result="effect1_dropShadow_6325_100818"/>
<feOffset dy="16.5517"/>
<feGaussianBlur stdDeviation="20.6897"/>
<feComposite in2="hardAlpha" operator="out"/>
<feColorMatrix type="matrix" values="0 0 0 0 0 0 0 0 0 0 0 0 0 0 0 0 0 0 0.2 0"/>
<feBlend mode="normal" in2="BackgroundImageFix" result="effect1_dropShadow_6325_100818"/>
<feBlend mode="normal" in="SourceGraphic" in2="effect1_dropShadow_6325_100818" result="shape"/>
</filter>
<clipPath id="clip0_6325_100818">
<rect width="250" height="250" fill="white"/>
</clipPath>
<clipPath id="clip1_6325_100818">
<rect x="45" y="33" width="160" height="160" rx="80" fill="white"/>
</clipPath>
</defs>
</svg>
