<svg width="19" height="18" viewBox="0 0 19 18" fill="none" xmlns="http://www.w3.org/2000/svg">
<path d="M8.03715 1.89747L3.52215 4.84497C2.07465 5.78997 2.07465 7.90497 3.52215 8.84997L8.03715 11.7975C8.84715 12.33 10.1821 12.33 10.9921 11.7975L15.4846 8.84997C16.9246 7.90497 16.9246 5.79747 15.4846 4.85247L10.9921 1.90497C10.1821 1.36497 8.84715 1.36497 8.03715 1.89747Z" stroke="#F3F4F4" stroke-linecap="round" stroke-linejoin="round"/>
<path  d="M4.72234 9.80957L4.71484 13.3271C4.71484 14.2796 5.44984 15.2996 6.34984 15.5996L8.74234 16.3946C9.15484 16.5296 9.83734 16.5296 10.2573 16.3946L12.6498 15.5996C13.5498 15.2996 14.2848 14.2796 14.2848 13.3271V9.84707" stroke="#F3F4F4" stroke-linecap="round" stroke-linejoin="round"/>
<path  d="M16.5498 11.25V6.75" stroke="#F3F4F4" stroke-linecap="round" stroke-linejoin="round"/>
</svg>
