<svg width="16" height="16" viewBox="0 0 16 16" fill="none" xmlns="http://www.w3.org/2000/svg">
<path d="M5.33337 8.13379H10" stroke="#151B23" stroke-miterlimit="10" stroke-linecap="round" stroke-linejoin="round"/>
<path d="M5.33337 10.7998H8.25337" stroke="#151B23" stroke-miterlimit="10" stroke-linecap="round" stroke-linejoin="round"/>
<path d="M6.66671 3.99967H9.33337C10.6667 3.99967 10.6667 3.33301 10.6667 2.66634C10.6667 1.33301 10 1.33301 9.33337 1.33301H6.66671C6.00004 1.33301 5.33337 1.33301 5.33337 2.66634C5.33337 3.99967 6.00004 3.99967 6.66671 3.99967Z" stroke="#151B23" stroke-miterlimit="10" stroke-linecap="round" stroke-linejoin="round"/>
<path d="M10.6667 2.67969C12.8867 2.79969 14 3.61969 14 6.66635V10.6664C14 13.333 13.3333 14.6664 10 14.6664H6C2.66667 14.6664 2 13.333 2 10.6664V6.66635C2 3.62635 3.11333 2.79969 5.33333 2.67969" stroke="#151B23" stroke-miterlimit="10" stroke-linecap="round" stroke-linejoin="round"/>
</svg>
