<svg width="14" height="14" viewBox="0 0 14 14" fill="none" xmlns="http://www.w3.org/2000/svg">
<path d="M3.3335 11.9998C3.3335 12.4601 3.70659 12.8332 4.16683 12.8332C4.62707 12.8332 5.00016 12.4601 5.00016 11.9998C5.00016 11.5396 4.62707 11.1665 4.16683 11.1665C3.70659 11.1665 3.3335 11.5396 3.3335 11.9998Z" fill="#797979"/>
<path d="M3.3335 6.99984C3.3335 7.46007 3.70659 7.83317 4.16683 7.83317C4.62707 7.83317 5.00016 7.46007 5.00016 6.99984C5.00016 6.5396 4.62707 6.1665 4.16683 6.1665C3.70659 6.1665 3.3335 6.5396 3.3335 6.99984Z" fill="#797979"/>
<path d="M3.3335 1.99984C3.3335 2.46007 3.70659 2.83317 4.16683 2.83317C4.62707 2.83317 5.00016 2.46007 5.00016 1.99984C5.00016 1.5396 4.62707 1.1665 4.16683 1.1665C3.70659 1.1665 3.3335 1.5396 3.3335 1.99984Z" fill="#797979"/>
<path d="M9 11.9998C9 12.4601 9.3731 12.8332 9.83333 12.8332C10.2936 12.8332 10.6667 12.4601 10.6667 11.9998C10.6667 11.5396 10.2936 11.1665 9.83333 11.1665C9.3731 11.1665 9 11.5396 9 11.9998Z" fill="#797979"/>
<path d="M9 6.99984C9 7.46007 9.3731 7.83317 9.83333 7.83317C10.2936 7.83317 10.6667 7.46007 10.6667 6.99984C10.6667 6.5396 10.2936 6.1665 9.83333 6.1665C9.3731 6.1665 9 6.5396 9 6.99984Z" fill="#797979"/>
<path d="M9 1.99984C9 2.46007 9.3731 2.83317 9.83333 2.83317C10.2936 2.83317 10.6667 2.46007 10.6667 1.99984C10.6667 1.5396 10.2936 1.1665 9.83333 1.1665C9.3731 1.1665 9 1.5396 9 1.99984Z" fill="#797979"/>
</svg>
