<svg width="20" height="20" viewBox="0 0 20 20" fill="none" xmlns="http://www.w3.org/2000/svg">
<path d="M12.983 10C12.983 11.65 11.6497 12.9833 9.99969 12.9833C8.34969 12.9833 7.01636 11.65 7.01636 10C7.01636 8.35 8.34969 7.01666 9.99969 7.01666C11.6497 7.01666 12.983 8.35 12.983 10Z" stroke="#151B23" stroke-linecap="round" stroke-linejoin="round"/>
<path d="M9.99987 16.8917C12.9415 16.8917 15.6832 15.1583 17.5915 12.1583C18.3415 10.9833 18.3415 9.00834 17.5915 7.83334C15.6832 4.83334 12.9415 3.10001 9.99987 3.10001C7.0582 3.10001 4.31654 4.83334 2.4082 7.83334C1.6582 9.00834 1.6582 10.9833 2.4082 12.1583C4.31654 15.1583 7.0582 16.8917 9.99987 16.8917Z" stroke="#151B23" stroke-linecap="round" stroke-linejoin="round"/>
</svg>
