<svg width="14" height="14" viewBox="0 0 14 14" fill="none" xmlns="http://www.w3.org/2000/svg">
<path d="M9.08835 6.99995C9.08835 8.15495 8.15502 9.08829 7.00002 9.08829C5.84502 9.08829 4.91168 8.15495 4.91168 6.99995C4.91168 5.84495 5.84502 4.91162 7.00002 4.91162C8.15502 4.91162 9.08835 5.84495 9.08835 6.99995Z" stroke="#151B23" stroke-linecap="round" stroke-linejoin="round"/>
<path d="M6.99997 11.8241C9.05914 11.8241 10.9783 10.6108 12.3141 8.51075C12.8391 7.68825 12.8391 6.30575 12.3141 5.48325C10.9783 3.38325 9.05914 2.16992 6.99997 2.16992C4.9408 2.16992 3.02164 3.38325 1.6858 5.48325C1.1608 6.30575 1.1608 7.68825 1.6858 8.51075C3.02164 10.6108 4.9408 11.8241 6.99997 11.8241Z" stroke="#151B23" stroke-linecap="round" stroke-linejoin="round"/>
</svg>
