<svg width="28" height="28" viewBox="0 0 28 28" fill="none" xmlns="http://www.w3.org/2000/svg">
<path d="M25.6667 12.9153V19.4253C25.6667 22.867 22.8667 25.667 19.425 25.667H8.575C5.13333 25.667 2.33333 22.867 2.33333 19.4253V11.0137H25.3633C25.5383 11.5387 25.6317 12.0753 25.655 12.647C25.6667 12.7287 25.6667 12.8337 25.6667 12.9153Z" fill="#1761D8"/>
<path opacity="0.4" d="M25.3633 11.014H2.33333V7.49065C2.33333 4.64398 4.64333 2.33398 7.49 2.33398H10.2083C12.11 2.33398 12.705 2.95232 13.4633 3.96732L15.0967 6.13732C15.4583 6.61565 15.505 6.68565 16.1817 6.68565H19.4367C22.2017 6.67398 24.5583 8.49398 25.3633 11.014Z" fill="#1761D8"/>
</svg>
