<svg width="41" height="40" viewBox="0 0 41 40" fill="none" xmlns="http://www.w3.org/2000/svg">
<path opacity="0.4" d="M27.5667 6.08398H13.4334C9.31673 6.08398 5.9834 9.43398 5.9834 13.534V29.2173C5.9834 33.3173 9.3334 36.6673 13.4334 36.6673H27.5501C31.6667 36.6673 35.0001 33.3173 35.0001 29.2173V13.534C35.0167 9.41732 31.6667 6.08398 27.5667 6.08398Z" />
<path d="M24.4164 3.33398H16.5831C14.8498 3.33398 13.4331 4.73398 13.4331 6.46732V8.03398C13.4331 9.76732 14.8331 11.1673 16.5664 11.1673H24.4164C26.1498 11.1673 27.5498 9.76732 27.5498 8.03398V6.46732C27.5664 4.73398 26.1498 3.33398 24.4164 3.33398Z" />
<path d="M25.5002 21.584H13.8335C13.1502 21.584 12.5835 21.0173 12.5835 20.334C12.5835 19.6507 13.1502 19.084 13.8335 19.084H25.5002C26.1835 19.084 26.7502 19.6507 26.7502 20.334C26.7502 21.0173 26.1835 21.584 25.5002 21.584Z" />
<path d="M21.1335 28.25H13.8335C13.1502 28.25 12.5835 27.6833 12.5835 27C12.5835 26.3167 13.1502 25.75 13.8335 25.75H21.1335C21.8168 25.75 22.3835 26.3167 22.3835 27C22.3835 27.6833 21.8168 28.25 21.1335 28.25Z" />
</svg>
