<svg width="20" height="20" viewBox="0 0 20 20" fill="none" xmlns="http://www.w3.org/2000/svg">
<path d="M7.50016 8.33333C8.42064 8.33333 9.16683 7.58714 9.16683 6.66667C9.16683 5.74619 8.42064 5 7.50016 5C6.57969 5 5.8335 5.74619 5.8335 6.66667C5.8335 7.58714 6.57969 8.33333 7.50016 8.33333Z" stroke="#151B23" stroke-linecap="round" stroke-linejoin="round"/>
<path d="M10.8332 1.66602H7.49984C3.33317 1.66602 1.6665 3.33268 1.6665 7.49935V12.4993C1.6665 16.666 3.33317 18.3327 7.49984 18.3327H12.4998C16.6665 18.3327 18.3332 16.666 18.3332 12.4993V8.33268" stroke="#151B23" stroke-linecap="round" stroke-linejoin="round"/>
<path d="M15.9501 2.15854L12.9251 5.18354C12.8084 5.30021 12.6917 5.52521 12.6751 5.69187L12.5084 6.85021C12.4501 7.26687 12.7417 7.55854 13.1584 7.50021L14.3167 7.33354C14.4751 7.30854 14.7084 7.20021 14.8251 7.08354L17.8501 4.05854C18.3751 3.53354 18.6167 2.93354 17.8501 2.16687C17.0751 1.38354 16.4751 1.63354 15.9501 2.15854Z" stroke="#151B23" stroke-miterlimit="10" stroke-linecap="round" stroke-linejoin="round"/>
<path d="M15.5166 2.5918C15.7749 3.50846 16.4916 4.22513 17.4083 4.48346" stroke="#151B23" stroke-miterlimit="10" stroke-linecap="round" stroke-linejoin="round"/>
<path d="M2.2251 15.7918L6.33343 13.0335C6.99176 12.5918 7.94176 12.6418 8.53343 13.1501L8.80843 13.3918C9.45843 13.9501 10.5084 13.9501 11.1584 13.3918L14.6251 10.4168C15.2751 9.85846 16.3251 9.85846 16.9751 10.4168L18.3334 11.5835" stroke="#151B23" stroke-linecap="round" stroke-linejoin="round"/>
</svg>
