<svg width="30" height="16" viewBox="0 0 30 16" fill="none" xmlns="http://www.w3.org/2000/svg">
<path d="M1.32666 3.95289V2.94622C1.32666 2.26622 1.87999 1.71289 2.55999 1.71289H11.1733C11.8533 1.71289 12.4067 2.26622 12.4067 2.94622V3.95289" stroke="#151B23" stroke-linecap="round" stroke-linejoin="round"/>
<path d="M6.8667 12.0662V2.21289" stroke="#151B23" stroke-linecap="round" stroke-linejoin="round"/>
<path d="M4.6001 12.0664H8.3201" stroke="#151B23" stroke-linecap="round" stroke-linejoin="round"/>
<path d="M9.12012 6.89258H13.7935C14.2801 6.89258 14.6735 7.28591 14.6735 7.77258V8.30591" stroke="#151B23" stroke-linecap="round" stroke-linejoin="round"/>
<path d="M10.7202 14.2861V7.24609" stroke="#151B23" stroke-linecap="round" stroke-linejoin="round"/>
<path d="M9.29346 14.2871H12.1468" stroke="#151B23" stroke-linecap="round" stroke-linejoin="round"/>
<path d="M25.6292 9.3332L26.45 8.51237L27.7875 7.17487C28.0667 6.89154 27.8667 6.4082 27.4667 6.4082L24.8709 6.4082H22.5334C22.1334 6.4082 21.9334 6.89154 22.2167 7.17487L24.375 9.3332C24.7167 9.67904 25.2834 9.67904 25.6292 9.3332Z" fill="#151B23"/>
</svg>
