<svg width="14" height="14" viewBox="0 0 14 14" fill="none" xmlns="http://www.w3.org/2000/svg">
<path d="M7.00033 1.1665C3.78616 1.1665 1.16699 3.78567 1.16699 6.99984C1.16699 10.214 3.78616 12.8332 7.00033 12.8332C10.2145 12.8332 12.8337 10.214 12.8337 6.99984C12.8337 3.78567 10.2145 1.1665 7.00033 1.1665ZM6.56283 4.6665C6.56283 4.42734 6.76116 4.229 7.00033 4.229C7.23949 4.229 7.43783 4.42734 7.43783 4.6665V7.58317C7.43783 7.82234 7.23949 8.02067 7.00033 8.02067C6.76116 8.02067 6.56283 7.82234 6.56283 7.58317V4.6665ZM7.53699 9.55484C7.50783 9.63067 7.46699 9.689 7.41449 9.74734C7.35616 9.79984 7.29199 9.84067 7.22199 9.86984C7.15199 9.899 7.07616 9.9165 7.00033 9.9165C6.92449 9.9165 6.84866 9.899 6.77866 9.86984C6.70866 9.84067 6.64449 9.79984 6.58616 9.74734C6.53366 9.689 6.49283 9.63067 6.46366 9.55484C6.43449 9.48484 6.41699 9.409 6.41699 9.33317C6.41699 9.25734 6.43449 9.1815 6.46366 9.1115C6.49283 9.0415 6.53366 8.97734 6.58616 8.919C6.64449 8.8665 6.70866 8.82567 6.77866 8.7965C6.91866 8.73817 7.08199 8.73817 7.22199 8.7965C7.29199 8.82567 7.35616 8.8665 7.41449 8.919C7.46699 8.97734 7.50783 9.0415 7.53699 9.1115C7.56616 9.1815 7.58366 9.25734 7.58366 9.33317C7.58366 9.409 7.56616 9.48484 7.53699 9.55484Z" fill="#1761D8"/>
</svg>
