<svg width="163" height="32" viewBox="0 0 163 32" fill="none" xmlns="http://www.w3.org/2000/svg">
<g clip-path="url(#clip0_5640_52550)">
<g clip-path="url(#clip1_5640_52550)">
<path fill-rule="evenodd" clip-rule="evenodd" d="M20.4446 9.34824C19.129 8.4692 17.5822 8 16 8V0C19.1645 0 22.2579 0.938384 24.8891 2.69649C27.5203 4.45458 29.571 6.95345 30.7821 9.87704C31.993 12.8006 32.3099 16.0178 31.6926 19.1214C31.0752 22.2251 29.5514 25.0761 27.3137 27.3137C25.0761 29.5514 22.2251 31.0752 19.1214 31.6926C16.0178 32.3099 12.8006 31.993 9.87704 30.7821C6.95345 29.571 4.45458 27.5203 2.69649 24.8891C0.938384 22.2579 0 19.1645 0 16H8C8 17.5822 8.4692 19.129 9.34824 20.4446C10.2273 21.7602 11.4767 22.7855 12.9386 23.391C14.4003 23.9966 16.0089 24.155 17.5607 23.8462C19.1126 23.5376 20.538 22.7757 21.6569 21.6569C22.7757 20.538 23.5376 19.1126 23.8462 17.5607C24.155 16.0089 23.9966 14.4003 23.391 12.9386C22.7855 11.4767 21.7602 10.2273 20.4446 9.34824Z" fill="#1761D8"/>
<path fill-rule="evenodd" clip-rule="evenodd" d="M8 3.465e-06C8 1.05058 7.79308 2.09087 7.39104 3.06147C6.989 4.03207 6.39972 4.91399 5.65685 5.65686C4.91399 6.39973 4.03208 6.989 3.06147 7.39104C2.09086 7.79308 1.05057 8 3.49688e-07 8L0 16C2.10115 16 4.18172 15.5862 6.12294 14.7821C8.06416 13.978 9.828 12.7994 11.3137 11.3137C12.7994 9.828 13.978 8.06416 14.7821 6.12294C15.5862 4.18172 16 2.10115 16 0L8 3.465e-06Z" fill="#1761D8"/>
</g>
<path d="M48.098 13.716C48.098 14.352 47.948 14.952 47.648 15.516C47.348 16.08 46.868 16.542 46.208 16.902C45.548 17.25 44.702 17.424 43.67 17.424H41.402V22.5H39.35V9.99H43.67C44.63 9.99 45.44 10.158 46.1 10.494C46.772 10.818 47.27 11.262 47.594 11.826C47.93 12.39 48.098 13.02 48.098 13.716ZM43.67 15.75C44.45 15.75 45.032 15.576 45.416 15.228C45.8 14.868 45.992 14.364 45.992 13.716C45.992 12.348 45.218 11.664 43.67 11.664H41.402V15.75H43.67ZM51.0991 11.268C50.7271 11.268 50.4151 11.142 50.1631 10.89C49.9111 10.638 49.7851 10.326 49.7851 9.954C49.7851 9.582 49.9111 9.27 50.1631 9.018C50.4151 8.766 50.7271 8.64 51.0991 8.64C51.4591 8.64 51.7651 8.766 52.0171 9.018C52.2691 9.27 52.3951 9.582 52.3951 9.954C52.3951 10.326 52.2691 10.638 52.0171 10.89C51.7651 11.142 51.4591 11.268 51.0991 11.268ZM52.1071 12.582V22.5H50.0551V12.582H52.1071ZM56.8532 14.04C57.2012 13.584 57.6752 13.2 58.2752 12.888C58.8752 12.576 59.5532 12.42 60.3092 12.42C61.1732 12.42 61.9592 12.636 62.6672 13.068C63.3872 13.488 63.9512 14.082 64.3592 14.85C64.7672 15.618 64.9712 16.5 64.9712 17.496C64.9712 18.492 64.7672 19.386 64.3592 20.178C63.9512 20.958 63.3872 21.57 62.6672 22.014C61.9592 22.446 61.1732 22.662 60.3092 22.662C59.5532 22.662 58.8812 22.512 58.2932 22.212C57.7052 21.9 57.2252 21.516 56.8532 21.06V27.216H54.8012V12.582H56.8532V14.04ZM62.8832 17.496C62.8832 16.812 62.7392 16.224 62.4512 15.732C62.1752 15.228 61.8032 14.85 61.3352 14.598C60.8792 14.334 60.3872 14.202 59.8592 14.202C59.3432 14.202 58.8512 14.334 58.3832 14.598C57.9272 14.862 57.5552 15.246 57.2672 15.75C56.9912 16.254 56.8532 16.848 56.8532 17.532C56.8532 18.216 56.9912 18.816 57.2672 19.332C57.5552 19.836 57.9272 20.22 58.3832 20.484C58.8512 20.748 59.3432 20.88 59.8592 20.88C60.3872 20.88 60.8792 20.748 61.3352 20.484C61.8032 20.208 62.1752 19.812 62.4512 19.296C62.7392 18.78 62.8832 18.18 62.8832 17.496ZM76.0904 17.298C76.0904 17.67 76.0664 18.006 76.0184 18.306H68.4404C68.5004 19.098 68.7944 19.734 69.3224 20.214C69.8504 20.694 70.4984 20.934 71.2664 20.934C72.3704 20.934 73.1504 20.472 73.6064 19.548H75.8204C75.5204 20.46 74.9744 21.21 74.1824 21.798C73.4024 22.374 72.4304 22.662 71.2664 22.662C70.3184 22.662 69.4664 22.452 68.7104 22.032C67.9664 21.6 67.3784 21 66.9464 20.232C66.5264 19.452 66.3164 18.552 66.3164 17.532C66.3164 16.512 66.5204 15.618 66.9284 14.85C67.3484 14.07 67.9304 13.47 68.6744 13.05C69.4304 12.63 70.2944 12.42 71.2664 12.42C72.2024 12.42 73.0364 12.624 73.7684 13.032C74.5004 13.44 75.0704 14.016 75.4784 14.76C75.8864 15.492 76.0904 16.338 76.0904 17.298ZM73.9484 16.65C73.9364 15.894 73.6664 15.288 73.1384 14.832C72.6104 14.376 71.9564 14.148 71.1764 14.148C70.4684 14.148 69.8624 14.376 69.3584 14.832C68.8544 15.276 68.5544 15.882 68.4584 16.65H73.9484ZM89.2835 22.5L86.4035 17.496H84.8375V22.5H82.7855V9.99H87.1055C88.0655 9.99 88.8755 10.158 89.5355 10.494C90.2075 10.83 90.7055 11.28 91.0295 11.844C91.3655 12.408 91.5335 13.038 91.5335 13.734C91.5335 14.55 91.2935 15.294 90.8135 15.966C90.3455 16.626 89.6195 17.076 88.6355 17.316L91.7315 22.5H89.2835ZM84.8375 15.858H87.1055C87.8735 15.858 88.4495 15.666 88.8335 15.282C89.2295 14.898 89.4275 14.382 89.4275 13.734C89.4275 13.086 89.2355 12.582 88.8515 12.222C88.4675 11.85 87.8855 11.664 87.1055 11.664H84.8375V15.858ZM103.249 17.298C103.249 17.67 103.225 18.006 103.177 18.306H95.5986C95.6586 19.098 95.9526 19.734 96.4806 20.214C97.0086 20.694 97.6566 20.934 98.4246 20.934C99.5286 20.934 100.309 20.472 100.765 19.548H102.979C102.679 20.46 102.133 21.21 101.341 21.798C100.561 22.374 99.5886 22.662 98.4246 22.662C97.4766 22.662 96.6246 22.452 95.8686 22.032C95.1246 21.6 94.5366 21 94.1046 20.232C93.6846 19.452 93.4746 18.552 93.4746 17.532C93.4746 16.512 93.6786 15.618 94.0866 14.85C94.5066 14.07 95.0886 13.47 95.8326 13.05C96.5886 12.63 97.4526 12.42 98.4246 12.42C99.3606 12.42 100.195 12.624 100.927 13.032C101.659 13.44 102.229 14.016 102.637 14.76C103.045 15.492 103.249 16.338 103.249 17.298ZM101.107 16.65C101.095 15.894 100.825 15.288 100.297 14.832C99.7686 14.376 99.1146 14.148 98.3346 14.148C97.6266 14.148 97.0206 14.376 96.5166 14.832C96.0126 15.276 95.7126 15.882 95.6166 16.65H101.107ZM104.584 17.532C104.584 16.512 104.788 15.618 105.196 14.85C105.616 14.07 106.192 13.47 106.924 13.05C107.656 12.63 108.496 12.42 109.444 12.42C110.644 12.42 111.634 12.708 112.414 13.284C113.206 13.848 113.74 14.658 114.016 15.714H111.802C111.622 15.222 111.334 14.838 110.938 14.562C110.542 14.286 110.044 14.148 109.444 14.148C108.604 14.148 107.932 14.448 107.428 15.048C106.936 15.636 106.69 16.464 106.69 17.532C106.69 18.6 106.936 19.434 107.428 20.034C107.932 20.634 108.604 20.934 109.444 20.934C110.632 20.934 111.418 20.412 111.802 19.368H114.016C113.728 20.376 113.188 21.18 112.396 21.78C111.604 22.368 110.62 22.662 109.444 22.662C108.496 22.662 107.656 22.452 106.924 22.032C106.192 21.6 105.616 21 105.196 20.232C104.788 19.452 104.584 18.552 104.584 17.532ZM118.113 14.022C118.413 13.518 118.809 13.128 119.301 12.852C119.805 12.564 120.399 12.42 121.083 12.42V14.544H120.561C119.757 14.544 119.145 14.748 118.725 15.156C118.317 15.564 118.113 16.272 118.113 17.28V22.5H116.061V12.582H118.113V14.022ZM131.951 12.582V22.5H129.899V21.33C129.575 21.738 129.149 22.062 128.621 22.302C128.105 22.53 127.553 22.644 126.965 22.644C126.185 22.644 125.483 22.482 124.859 22.158C124.247 21.834 123.761 21.354 123.401 20.718C123.053 20.082 122.879 19.314 122.879 18.414V12.582H124.913V18.108C124.913 18.996 125.135 19.68 125.579 20.16C126.023 20.628 126.629 20.862 127.397 20.862C128.165 20.862 128.771 20.628 129.215 20.16C129.671 19.68 129.899 18.996 129.899 18.108V12.582H131.951ZM135.703 11.268C135.331 11.268 135.019 11.142 134.767 10.89C134.515 10.638 134.389 10.326 134.389 9.954C134.389 9.582 134.515 9.27 134.767 9.018C135.019 8.766 135.331 8.64 135.703 8.64C136.063 8.64 136.369 8.766 136.621 9.018C136.873 9.27 136.999 9.582 136.999 9.954C136.999 10.326 136.873 10.638 136.621 10.89C136.369 11.142 136.063 11.268 135.703 11.268ZM136.711 12.582V22.5H134.659V12.582H136.711ZM141.799 14.256V19.746C141.799 20.118 141.883 20.388 142.051 20.556C142.231 20.712 142.531 20.79 142.951 20.79H144.211V22.5H142.591C141.667 22.5 140.959 22.284 140.467 21.852C139.975 21.42 139.729 20.718 139.729 19.746V14.256H138.559V12.582H139.729V10.116H141.799V12.582H144.211V14.256H141.799ZM155.192 17.298C155.192 17.67 155.168 18.006 155.12 18.306H147.542C147.602 19.098 147.896 19.734 148.424 20.214C148.952 20.694 149.6 20.934 150.368 20.934C151.472 20.934 152.252 20.472 152.708 19.548H154.922C154.622 20.46 154.076 21.21 153.284 21.798C152.504 22.374 151.532 22.662 150.368 22.662C149.42 22.662 148.568 22.452 147.812 22.032C147.068 21.6 146.48 21 146.048 20.232C145.628 19.452 145.418 18.552 145.418 17.532C145.418 16.512 145.622 15.618 146.03 14.85C146.45 14.07 147.032 13.47 147.776 13.05C148.532 12.63 149.396 12.42 150.368 12.42C151.304 12.42 152.138 12.624 152.87 13.032C153.602 13.44 154.172 14.016 154.58 14.76C154.988 15.492 155.192 16.338 155.192 17.298ZM153.05 16.65C153.038 15.894 152.768 15.288 152.24 14.832C151.712 14.376 151.058 14.148 150.278 14.148C149.57 14.148 148.964 14.376 148.46 14.832C147.956 15.276 147.656 15.882 147.56 16.65H153.05ZM159.263 14.022C159.563 13.518 159.959 13.128 160.451 12.852C160.955 12.564 161.549 12.42 162.233 12.42V14.544H161.711C160.907 14.544 160.295 14.748 159.875 15.156C159.467 15.564 159.263 16.272 159.263 17.28V22.5H157.211V12.582H159.263V14.022Z" fill="#151B23"/>
</g>
<defs>
<clipPath id="clip0_5640_52550">
<rect width="163" height="32" fill="white"/>
</clipPath>
<clipPath id="clip1_5640_52550">
<rect width="32" height="32" fill="white"/>
</clipPath>
</defs>
</svg>
