<svg width="41" height="40" viewBox="0 0 41 40" fill="none" xmlns="http://www.w3.org/2000/svg">
<path d="M32.9999 12.5001L30.5166 14.9835L25.5166 9.98346L27.9999 7.50013C28.6999 6.80013 29.5999 6.4668 30.4999 6.4668C31.3999 6.4668 32.2999 6.80013 32.9999 7.50013C34.3833 8.88346 34.3833 11.1168 32.9999 12.5001Z" fill="#797979"/>
<path opacity="0.4" d="M30.5167 14.9824L11.3334 34.1658C9.95007 35.5491 7.71673 35.5491 6.3334 34.1658C4.95007 32.7824 4.95007 30.5491 6.3334 29.1658L25.5167 9.98242L30.5167 14.9824Z" fill="#797979"/>
<path d="M17.0835 5.83287L17.7669 3.51621C17.8335 3.29954 17.7669 3.06621 17.6169 2.89954C17.4669 2.73287 17.2002 2.66621 16.9835 2.73287L14.6669 3.41621L12.3502 2.73287C12.1335 2.66621 11.9002 2.73287 11.7335 2.88287C11.5669 3.04954 11.5169 3.28287 11.5835 3.49954L12.2502 5.83287L11.5669 8.14954C11.5002 8.36621 11.5669 8.59954 11.7169 8.76621C11.8835 8.93287 12.1169 8.98287 12.3335 8.91621L14.6669 8.24954L16.9835 8.93287C17.0502 8.94954 17.1002 8.96621 17.1669 8.96621C17.3335 8.96621 17.4835 8.89954 17.6169 8.78287C17.7835 8.61621 17.8335 8.38287 17.7669 8.16621L17.0835 5.83287Z" fill="#797979"/>
<path d="M10.4165 15.8329L11.0999 13.5162C11.1665 13.2995 11.0999 13.0662 10.9499 12.8995C10.7832 12.7329 10.5499 12.6829 10.3332 12.7495L7.99987 13.4162L5.6832 12.7329C5.46653 12.6662 5.2332 12.7329 5.06653 12.8829C4.89987 13.0495 4.84987 13.2829 4.91653 13.4995L5.5832 15.8329L4.89987 18.1495C4.8332 18.3662 4.89987 18.5995 5.04987 18.7662C5.21653 18.9329 5.44987 18.9829 5.66653 18.9162L7.9832 18.2329L10.2999 18.9162C10.3499 18.9329 10.4165 18.9329 10.4832 18.9329C10.6499 18.9329 10.7999 18.8662 10.9332 18.7495C11.0999 18.5829 11.1499 18.3495 11.0832 18.1329L10.4165 15.8329Z" fill="#797979"/>
<path d="M35.4167 24.1666L36.1 21.8499C36.1667 21.6333 36.1 21.3999 35.95 21.2333C35.7834 21.0666 35.55 21.0166 35.3334 21.0833L33.0167 21.7666L30.7 21.0833C30.4834 21.0166 30.25 21.0833 30.0834 21.2333C29.9167 21.3999 29.8667 21.6333 29.9334 21.8499L30.6167 24.1666L29.9334 26.4833C29.8667 26.6999 29.9334 26.9333 30.0834 27.0999C30.25 27.2666 30.4834 27.3166 30.7 27.2499L33.0167 26.5666L35.3334 27.2499C35.3834 27.2666 35.45 27.2666 35.5167 27.2666C35.6834 27.2666 35.8334 27.1999 35.9667 27.0833C36.1334 26.9166 36.1834 26.6833 36.1167 26.4666L35.4167 24.1666Z" fill="#797979"/>
</svg>
