<svg width="14" height="15" viewBox="0 0 14 15" fill="none" xmlns="http://www.w3.org/2000/svg">
<path d="M10.2317 5.34656C11.0242 5.34656 11.6667 4.70409 11.6667 3.91156C11.6667 3.11903 11.0242 2.47656 10.2317 2.47656C9.43916 2.47656 8.79669 3.11903 8.79669 3.91156C8.79669 4.70409 9.43916 5.34656 10.2317 5.34656Z" stroke="#1761D8" stroke-miterlimit="10" stroke-linecap="round" stroke-linejoin="round"/>
<path d="M3.76835 5.34656C4.56088 5.34656 5.20334 4.70409 5.20334 3.91156C5.20334 3.11903 4.56088 2.47656 3.76835 2.47656C2.97582 2.47656 2.33334 3.11903 2.33334 3.91156C2.33334 4.70409 2.97582 5.34656 3.76835 5.34656Z" stroke="#1761D8" stroke-miterlimit="10" stroke-linecap="round" stroke-linejoin="round"/>
<path d="M10.2317 12.5223C11.0242 12.5223 11.6667 11.8799 11.6667 11.0873C11.6667 10.2948 11.0242 9.65234 10.2317 9.65234C9.43916 9.65234 8.79669 10.2948 8.79669 11.0873C8.79669 11.8799 9.43916 12.5223 10.2317 12.5223Z" stroke="#1761D8" stroke-miterlimit="10" stroke-linecap="round" stroke-linejoin="round"/>
<path d="M3.76835 12.5223C4.56088 12.5223 5.20334 11.8799 5.20334 11.0873C5.20334 10.2948 4.56088 9.65234 3.76835 9.65234C2.97582 9.65234 2.33334 10.2948 2.33334 11.0873C2.33334 11.8799 2.97582 12.5223 3.76835 12.5223Z" stroke="#1761D8" stroke-miterlimit="10" stroke-linecap="round" stroke-linejoin="round"/>
</svg>
