<svg width="200" height="200" viewBox="0 0 200 200" fill="none" xmlns="http://www.w3.org/2000/svg">
<g clip-path="url(#clip0_1750_44265)">
<rect x="36" y="26.4004" width="128" height="128" rx="64" fill="#F3F3F3"/>
<g filter="url(#filter0_d_1750_44265)">
<rect x="52" y="55.2002" width="96" height="103.2" rx="6.4" fill="#FEFEFE"/>
<path d="M68.0012 63.1992C65.9052 63.1992 64.2012 64.9032 64.2012 66.9992C64.2012 69.0552 65.8092 70.7192 67.9052 70.7912C67.9692 70.7832 68.0332 70.7832 68.0812 70.7912C68.0972 70.7912 68.1052 70.7912 68.1212 70.7912C68.1292 70.7912 68.1292 70.7912 68.1372 70.7912C70.1852 70.7192 71.7932 69.0552 71.8012 66.9992C71.8012 64.9032 70.0972 63.1992 68.0012 63.1992Z" fill="#F0A7A7"/>
<path d="M72.0651 72.9197C69.8331 71.4317 66.1931 71.4317 63.9451 72.9197C62.9291 73.5997 62.3691 74.5197 62.3691 75.5037C62.3691 76.4877 62.9291 77.3997 63.9371 78.0717C65.0571 78.8237 66.5291 79.1997 68.0011 79.1997C69.4731 79.1997 70.9451 78.8237 72.0651 78.0717C73.0731 77.3917 73.6331 76.4797 73.6331 75.4877C73.6251 74.5037 73.0731 73.5917 72.0651 72.9197Z" fill="#F0A7A7"/>
<rect x="82.4004" y="63.1992" width="20.4" height="4.8" rx="2.4" fill="#ECEFF0"/>
<rect x="104.4" y="63.1992" width="20.4" height="4.8" rx="2.4" fill="#ECEFF0"/>
<rect x="82.4004" y="69.5996" width="27.2" height="4.8" rx="2.4" fill="#ECEFF0"/>
<rect x="82.4004" y="75.999" width="42.4" height="4.8" rx="2.4" fill="#ECEFF0"/>
<path opacity="0.4" d="M139.35 73.7852V78.3002C139.35 79.3002 139.1 79.8002 137.85 79.8002H133.35C132.1 79.8002 131.85 79.3002 131.85 78.3002V73.7852C131.93 73.7952 132.015 73.8002 132.1 73.8002H139.1C139.185 73.8002 139.27 73.7952 139.35 73.7852Z" fill="#F0A7A7"/>
<path d="M140.6 71.2998V72.2998C140.6 73.2148 140.185 73.7098 139.35 73.7848C139.27 73.7948 139.185 73.7998 139.1 73.7998H132.1C132.015 73.7998 131.93 73.7948 131.85 73.7848C131.015 73.7098 130.6 73.2148 130.6 72.2998V71.2998C130.6 70.2998 131.1 69.7998 132.1 69.7998H139.1C140.1 69.7998 140.6 70.2998 140.6 71.2998Z" fill="#F0A7A7"/>
<path d="M136.509 76.1748H134.689C134.484 76.1748 134.314 76.0048 134.314 75.7998C134.314 75.5948 134.484 75.4248 134.689 75.4248H136.509C136.714 75.4248 136.884 75.5948 136.884 75.7998C136.884 76.0048 136.714 76.1748 136.509 76.1748Z" fill="#F0A7A7"/>
<path d="M68.0012 96.3994C65.9052 96.3994 64.2012 98.1034 64.2012 100.199C64.2012 102.255 65.8092 103.919 67.9052 103.991C67.9692 103.983 68.0332 103.983 68.0812 103.991C68.0972 103.991 68.1052 103.991 68.1212 103.991C68.1292 103.991 68.1292 103.991 68.1372 103.991C70.1852 103.919 71.7932 102.255 71.8012 100.199C71.8012 98.1034 70.0972 96.3994 68.0012 96.3994Z" fill="#A7E3F0"/>
<path d="M72.0651 106.12C69.8331 104.632 66.1931 104.632 63.9451 106.12C62.9291 106.8 62.3691 107.72 62.3691 108.704C62.3691 109.688 62.9291 110.6 63.9371 111.272C65.0571 112.024 66.5291 112.4 68.0011 112.4C69.4731 112.4 70.9451 112.024 72.0651 111.272C73.0731 110.592 73.6331 109.68 73.6331 108.688C73.6251 107.704 73.0731 106.792 72.0651 106.12Z" fill="#A7E3F0"/>
<rect x="82.4004" y="96.3994" width="20.4" height="4.8" rx="2.4" fill="#ECEFF0"/>
<rect x="104.4" y="96.3994" width="20.4" height="4.8" rx="2.4" fill="#ECEFF0"/>
<rect x="82.4004" y="102.8" width="27.2" height="4.8" rx="2.4" fill="#ECEFF0"/>
<rect x="82.4004" y="109.199" width="42.4" height="4.8" rx="2.4" fill="#ECEFF0"/>
<path opacity="0.4" d="M139.35 106.985V111.5C139.35 112.5 139.1 113 137.85 113H133.35C132.1 113 131.85 112.5 131.85 111.5V106.985C131.93 106.995 132.015 107 132.1 107H139.1C139.185 107 139.27 106.995 139.35 106.985Z" fill="#A7E3F0"/>
<path d="M140.6 104.5V105.5C140.6 106.415 140.185 106.91 139.35 106.985C139.27 106.995 139.185 107 139.1 107H132.1C132.015 107 131.93 106.995 131.85 106.985C131.015 106.91 130.6 106.415 130.6 105.5V104.5C130.6 103.5 131.1 103 132.1 103H139.1C140.1 103 140.6 103.5 140.6 104.5Z" fill="#A7E3F0"/>
<path d="M136.509 109.375H134.689C134.484 109.375 134.314 109.205 134.314 109C134.314 108.795 134.484 108.625 134.689 108.625H136.509C136.714 108.625 136.884 108.795 136.884 109C136.884 109.205 136.714 109.375 136.509 109.375Z" fill="#A7E3F0"/>
<path d="M68.0012 132C65.9052 132 64.2012 133.704 64.2012 135.8C64.2012 137.856 65.8092 139.52 67.9052 139.592C67.9692 139.584 68.0332 139.584 68.0812 139.592C68.0972 139.592 68.1052 139.592 68.1212 139.592C68.1292 139.592 68.1292 139.592 68.1372 139.592C70.1852 139.52 71.7932 137.856 71.8012 135.8C71.8012 133.704 70.0972 132 68.0012 132Z" fill="#F0A7D1"/>
<path d="M72.0651 141.72C69.8331 140.232 66.1931 140.232 63.9451 141.72C62.9291 142.4 62.3691 143.32 62.3691 144.304C62.3691 145.288 62.9291 146.2 63.9371 146.872C65.0571 147.624 66.5291 148 68.0011 148C69.4731 148 70.9451 147.624 72.0651 146.872C73.0731 146.192 73.6331 145.28 73.6331 144.288C73.6251 143.304 73.0731 142.392 72.0651 141.72Z" fill="#F0A7D1"/>
<rect x="82.4004" y="128" width="28.8" height="4.8" rx="2.4" fill="#ECEFF0"/>
<rect x="112.801" y="128" width="28.8" height="4.8" rx="2.4" fill="#ECEFF0"/>
<rect x="82.4004" y="134.4" width="27.2" height="4.8" rx="2.4" fill="#ECEFF0"/>
<rect x="82.4004" y="140.8" width="50.4" height="4.8" rx="2.4" fill="#ECEFF0"/>
<rect x="82.4004" y="147.2" width="58.4" height="4.8" rx="2.4" fill="#ECEFF0"/>
</g>
</g>
<g filter="url(#filter1_d_1750_44265)">
<rect x="52" y="125.6" width="96" height="32" rx="6.4" fill="#FEFEFE"/>
<path d="M68.0012 133.6C65.9052 133.6 64.2012 135.304 64.2012 137.4C64.2012 139.456 65.8092 141.12 67.9052 141.192C67.9692 141.184 68.0332 141.184 68.0812 141.192C68.0972 141.192 68.1052 141.192 68.1212 141.192C68.1292 141.192 68.1292 141.192 68.1372 141.192C70.1852 141.12 71.7932 139.456 71.8012 137.4C71.8012 135.304 70.0972 133.6 68.0012 133.6Z" fill="#F0A7D1"/>
<path d="M72.0651 143.32C69.8331 141.832 66.1931 141.832 63.9451 143.32C62.9291 144 62.3691 144.92 62.3691 145.904C62.3691 146.888 62.9291 147.8 63.9371 148.472C65.0571 149.224 66.5291 149.6 68.0011 149.6C69.4731 149.6 70.9451 149.224 72.0651 148.472C73.0731 147.792 73.6331 146.88 73.6331 145.888C73.6251 144.904 73.0731 143.992 72.0651 143.32Z" fill="#F0A7D1"/>
<rect x="82.4004" y="133.6" width="20.4" height="4.8" rx="2.4" fill="#ECEFF0"/>
<rect x="104.4" y="133.6" width="20.4" height="4.8" rx="2.4" fill="#ECEFF0"/>
<rect x="82.4004" y="140" width="27.2" height="4.8" rx="2.4" fill="#ECEFF0"/>
<rect x="82.4004" y="146.399" width="42.4" height="4.8" rx="2.4" fill="#ECEFF0"/>
<path opacity="0.4" d="M139.35 144.186V148.701C139.35 149.701 139.1 150.201 137.85 150.201H133.35C132.1 150.201 131.85 149.701 131.85 148.701V144.186C131.93 144.196 132.015 144.201 132.1 144.201H139.1C139.185 144.201 139.27 144.196 139.35 144.186Z" fill="#F0A7D1"/>
<path d="M140.6 141.7V142.7C140.6 143.615 140.185 144.11 139.35 144.185C139.27 144.195 139.185 144.2 139.1 144.2H132.1C132.015 144.2 131.93 144.195 131.85 144.185C131.015 144.11 130.6 143.615 130.6 142.7V141.7C130.6 140.7 131.1 140.2 132.1 140.2H139.1C140.1 140.2 140.6 140.7 140.6 141.7Z" fill="#F0A7D1"/>
<path d="M136.509 146.575H134.689C134.484 146.575 134.314 146.405 134.314 146.2C134.314 145.995 134.484 145.825 134.689 145.825H136.509C136.714 145.825 136.884 145.995 136.884 146.2C136.884 146.405 136.714 146.575 136.509 146.575Z" fill="#F0A7D1"/>
</g>
<defs>
<filter id="filter0_d_1750_44265" x="34.3448" y="50.7864" width="131.31" height="138.511" filterUnits="userSpaceOnUse" color-interpolation-filters="sRGB">
<feFlood flood-opacity="0" result="BackgroundImageFix"/>
<feColorMatrix in="SourceAlpha" type="matrix" values="0 0 0 0 0 0 0 0 0 0 0 0 0 0 0 0 0 0 127 0" result="hardAlpha"/>
<feMorphology radius="15.4483" operator="erode" in="SourceAlpha" result="effect1_dropShadow_1750_44265"/>
<feOffset dy="13.2414"/>
<feGaussianBlur stdDeviation="16.5517"/>
<feComposite in2="hardAlpha" operator="out"/>
<feColorMatrix type="matrix" values="0 0 0 0 0 0 0 0 0 0 0 0 0 0 0 0 0 0 0.2 0"/>
<feBlend mode="normal" in2="BackgroundImageFix" result="effect1_dropShadow_1750_44265"/>
<feBlend mode="normal" in="SourceGraphic" in2="effect1_dropShadow_1750_44265" result="shape"/>
</filter>
<filter id="filter1_d_1750_44265" x="39.2" y="125.6" width="121.6" height="60.8" filterUnits="userSpaceOnUse" color-interpolation-filters="sRGB">
<feFlood flood-opacity="0" result="BackgroundImageFix"/>
<feColorMatrix in="SourceAlpha" type="matrix" values="0 0 0 0 0 0 0 0 0 0 0 0 0 0 0 0 0 0 127 0" result="hardAlpha"/>
<feMorphology radius="14.4" operator="erode" in="SourceAlpha" result="effect1_dropShadow_1750_44265"/>
<feOffset dy="16"/>
<feGaussianBlur stdDeviation="13.6"/>
<feComposite in2="hardAlpha" operator="out"/>
<feColorMatrix type="matrix" values="0 0 0 0 0 0 0 0 0 0 0 0 0 0 0 0 0 0 0.2 0"/>
<feBlend mode="normal" in2="BackgroundImageFix" result="effect1_dropShadow_1750_44265"/>
<feBlend mode="normal" in="SourceGraphic" in2="effect1_dropShadow_1750_44265" result="shape"/>
</filter>
<clipPath id="clip0_1750_44265">
<rect x="36" y="26.4004" width="128" height="128" rx="64" fill="white"/>
</clipPath>
</defs>
</svg>
