<svg width="16" height="16" viewBox="0 0 16 16" fill="none" xmlns="http://www.w3.org/2000/svg">
<path d="M2.39844 4.85445C2.39844 3.55525 2.62617 2.55472 3.08164 1.85285C3.54457 1.15098 4.18297 0.800049 4.99684 0.800049C5.8107 0.800049 6.44537 1.15098 6.90084 1.85285C7.36377 2.55472 7.59524 3.55525 7.59524 4.85445C7.59524 6.15365 7.36377 7.15418 6.90084 7.85605C6.44537 8.55792 5.8107 8.90885 4.99684 8.90885C4.18297 8.90885 3.54457 8.55792 3.08164 7.85605C2.62617 7.15418 2.39844 6.15365 2.39844 4.85445ZM6.49764 4.85445C6.49764 4.42885 6.4715 4.02565 6.41924 3.64485C6.37444 3.26405 6.2923 2.93178 6.17284 2.64805C6.06084 2.36432 5.90777 2.14032 5.71364 1.97605C5.5195 1.80432 5.28057 1.71845 4.99684 1.71845C4.7131 1.71845 4.47417 1.80432 4.28004 1.97605C4.0859 2.14032 3.9291 2.36432 3.80964 2.64805C3.69764 2.93178 3.6155 3.26405 3.56324 3.64485C3.51844 4.02565 3.49604 4.42885 3.49604 4.85445C3.49604 5.28005 3.51844 5.68325 3.56324 6.06405C3.6155 6.44485 3.69764 6.77712 3.80964 7.06085C3.9291 7.34458 4.0859 7.57232 4.28004 7.74405C4.47417 7.90832 4.7131 7.99045 4.99684 7.99045C5.28057 7.99045 5.5195 7.90832 5.71364 7.74405C5.90777 7.57232 6.06084 7.34458 6.17284 7.06085C6.2923 6.77712 6.37444 6.44485 6.41924 6.06405C6.4715 5.68325 6.49764 5.28005 6.49764 4.85445Z" fill="#151B23"/>
<path d="M13.8496 10.4816C13.8496 12.0198 13.4651 13.1846 12.696 13.9761C11.9344 14.76 10.7995 15.1558 9.29124 15.1632L9.25764 14.2896C9.72804 14.2896 10.1499 14.2448 10.5232 14.1552C10.904 14.0656 11.2363 13.9238 11.52 13.7296C11.8038 13.528 12.039 13.2704 12.2256 12.9569C12.4198 12.6432 12.5616 12.2587 12.6512 11.8032C12.4571 11.8928 12.2368 11.9675 11.9904 12.0272C11.744 12.0795 11.4902 12.1056 11.2288 12.1056C10.7883 12.1056 10.415 12.0422 10.1088 11.9152C9.8027 11.7808 9.55257 11.6054 9.35844 11.3889C9.1643 11.1649 9.02244 10.911 8.93284 10.6272C8.8507 10.336 8.80964 10.0336 8.80964 9.72005C8.80964 9.44378 8.85817 9.15632 8.95524 8.85765C9.0523 8.55898 9.1979 8.28645 9.39204 8.04005C9.59364 7.79365 9.8475 7.59205 10.1536 7.43525C10.4598 7.27845 10.8219 7.20005 11.24 7.20005C11.6656 7.20005 12.039 7.27472 12.36 7.42405C12.6886 7.57338 12.9611 7.78992 13.1776 8.07365C13.4016 8.35738 13.5696 8.70458 13.6816 9.11525C13.7936 9.51845 13.8496 9.97392 13.8496 10.4816ZM11.3408 11.2544C11.6022 11.2544 11.8486 11.232 12.08 11.1872C12.3115 11.135 12.5355 11.0603 12.752 10.9632C12.7595 10.8811 12.7632 10.8027 12.7632 10.728C12.7632 10.6459 12.7632 10.5638 12.7632 10.4816C12.7632 10.1606 12.7408 9.85445 12.696 9.56325C12.6512 9.26458 12.5691 9.00698 12.4496 8.79045C12.3376 8.56645 12.1846 8.39098 11.9904 8.26405C11.7963 8.12965 11.5499 8.06245 11.2512 8.06245C11.0048 8.06245 10.7958 8.11472 10.624 8.21925C10.4523 8.32378 10.3104 8.45818 10.1984 8.62245C10.0864 8.77925 10.0043 8.95472 9.95204 9.14885C9.90724 9.33552 9.88484 9.51845 9.88484 9.69765C9.88484 10.2054 10.0043 10.5936 10.2432 10.8624C10.4896 11.1238 10.8555 11.2544 11.3408 11.2544Z" fill="#151B23"/>
</svg>
