<svg width="19" height="18" viewBox="0 0 19 18" fill="none" xmlns="http://www.w3.org/2000/svg">
<path opacity="0.4" d="M11.3301 14.2875L12.4701 15.4275L14.7501 13.1475" stroke="#F3F4F4" stroke-linecap="round" stroke-linejoin="round"/>
<path opacity="0.4" d="M9.61995 8.1525C9.54495 8.145 9.45495 8.145 9.37245 8.1525C7.58745 8.0925 6.16995 6.63 6.16995 4.83C6.16245 2.9925 7.65495 1.5 9.49245 1.5C11.33 1.5 12.8225 2.9925 12.8225 4.83C12.8225 6.63 11.3974 8.0925 9.61995 8.1525Z" stroke="#F3F4F4" stroke-linecap="round" stroke-linejoin="round"/>
<path d="M9.49277 16.3573C8.12777 16.3573 6.77027 16.0123 5.73527 15.3223C3.92027 14.1073 3.92027 12.1273 5.73527 10.9198C7.79777 9.53977 11.1803 9.53977 13.2428 10.9198" stroke="#F3F4F4" stroke-linecap="round" stroke-linejoin="round"/>
</svg>
