<svg width="20" height="20" viewBox="0 0 20 20" fill="none" xmlns="http://www.w3.org/2000/svg">
<path d="M10.0001 1.66675C5.40841 1.66675 1.66675 5.40841 1.66675 10.0001C1.66675 14.5917 5.40841 18.3334 10.0001 18.3334C14.5917 18.3334 18.3334 14.5917 18.3334 10.0001C18.3334 5.40841 14.5917 1.66675 10.0001 1.66675ZM13.9834 8.08342L9.25841 12.8084C9.14175 12.9251 8.98342 12.9917 8.81675 12.9917C8.65008 12.9917 8.49175 12.9251 8.37508 12.8084L6.01675 10.4501C5.77508 10.2084 5.77508 9.80841 6.01675 9.56675C6.25841 9.32508 6.65841 9.32508 6.90008 9.56675L8.81675 11.4834L13.1001 7.20008C13.3417 6.95842 13.7417 6.95842 13.9834 7.20008C14.2251 7.44175 14.2251 7.83342 13.9834 8.08342Z" fill="#1761D8"/>
</svg>
