<svg width="19" height="18" viewBox="0 0 19 18" fill="none" xmlns="http://www.w3.org/2000/svg">
<path d="M11 1.5H7.25C3.5 1.5 2 3 2 6.75V11.25C2 15 3.5 16.5 7.25 16.5" fill="#151B23"/>
<path d="M11 1.5H7.25C3.5 1.5 2 3 2 6.75V11.25C2 15 3.5 16.5 7.25 16.5" stroke="#F3F4F4" stroke-linecap="round" stroke-linejoin="round"/>
<path d="M17 7.5V9.75" stroke="#F3F4F4" stroke-linecap="round" stroke-linejoin="round"/>
<path d="M17 7.5H14C11.75 7.5 11 6.75 11 4.5V1.5L17 7.5Z" fill="#151B23" stroke="#F3F4F4" stroke-linecap="round" stroke-linejoin="round"/>
<path d="M10.8199 13.6954C9.05742 13.8229 9.05742 16.3729 10.8199 16.5004H14.9899C15.4924 16.5004 15.9874 16.3129 16.3549 15.9754C17.5924 14.8954 16.9324 12.7354 15.3049 12.5329C14.7199 9.01535 9.63492 10.3504 10.8349 13.7029" stroke="#F3F4F4" stroke-miterlimit="10" stroke-linecap="round" stroke-linejoin="round"/>
</svg>
