<svg width="20" height="20" viewBox="0 0 20 20" fill="none" xmlns="http://www.w3.org/2000/svg">
<path d="M11.4417 2.92422L12.9083 5.85755C13.1083 6.26589 13.6417 6.65755 14.0917 6.73255L16.75 7.17422C18.45 7.45755 18.85 8.69089 17.625 9.90755L15.5583 11.9742C15.2083 12.3242 15.0167 12.9992 15.125 13.4826L15.7167 16.0409C16.1833 18.0659 15.1083 18.8492 13.3167 17.7909L10.825 16.3159C10.375 16.0492 9.63333 16.0492 9.175 16.3159L6.68333 17.7909C4.9 18.8492 3.81667 18.0576 4.28333 16.0409L4.875 13.4826C4.98333 12.9992 4.79167 12.3242 4.44167 11.9742L2.375 9.90755C1.15833 8.69089 1.55 7.45755 3.25 7.17422L5.90833 6.73255C6.35 6.65755 6.88333 6.26589 7.08333 5.85755L8.55 2.92422C9.35 1.33255 10.65 1.33255 11.4417 2.92422Z" fill="#D2A01D"/>
</svg>
