<svg width="18" height="18" viewBox="0 0 18 18" fill="none" xmlns="http://www.w3.org/2000/svg">
<path  d="M13.4981 5.37C13.4531 5.3625 13.4006 5.3625 13.3556 5.37C12.3206 5.3325 11.4956 4.485 11.4956 3.435C11.4956 2.3625 12.3581 1.5 13.4306 1.5C14.5031 1.5 15.3656 2.37 15.3656 3.435C15.3581 4.485 14.5331 5.3325 13.4981 5.37Z" stroke="#F3F4F4" stroke-linecap="round" stroke-linejoin="round"/>
<path  d="M12.7256 10.8301C13.7531 11.0026 14.8856 10.8226 15.6806 10.2901C16.7381 9.58512 16.7381 8.43012 15.6806 7.72512C14.8781 7.19262 13.7306 7.01262 12.7031 7.19262" stroke="#F3F4F4" stroke-linecap="round" stroke-linejoin="round"/>
<path  d="M4.47541 5.37C4.52041 5.3625 4.57291 5.3625 4.61791 5.37C5.65291 5.3325 6.47791 4.485 6.47791 3.435C6.47791 2.3625 5.61541 1.5 4.54291 1.5C3.47041 1.5 2.60791 2.37 2.60791 3.435C2.61541 4.485 3.44041 5.3325 4.47541 5.37Z" stroke="#F3F4F4" stroke-linecap="round" stroke-linejoin="round"/>
<path  d="M5.24812 10.8301C4.22062 11.0026 3.08813 10.8226 2.29313 10.2901C1.23563 9.58512 1.23563 8.43012 2.29313 7.72512C3.09563 7.19262 4.24312 7.01262 5.27062 7.19262" stroke="#F3F4F4" stroke-linecap="round" stroke-linejoin="round"/>
<path d="M9.00006 10.9725C8.95506 10.965 8.90256 10.965 8.85756 10.9725C7.82256 10.935 6.99756 10.0875 6.99756 9.03754C6.99756 7.96504 7.86006 7.10254 8.93256 7.10254C10.0051 7.10254 10.8676 7.97254 10.8676 9.03754C10.8601 10.0875 10.0351 10.9425 9.00006 10.9725Z" stroke="#F3F4F4" stroke-linecap="round" stroke-linejoin="round"/>
<path d="M6.81754 13.3355C5.76004 14.0405 5.76004 15.1955 6.81754 15.9005C8.01754 16.703 9.98254 16.703 11.1825 15.9005C12.24 15.1955 12.24 14.0405 11.1825 13.3355C9.99004 12.5405 8.01754 12.5405 6.81754 13.3355Z" stroke="#F3F4F4" stroke-linecap="round" stroke-linejoin="round"/>
</svg>
