<svg width="4" height="14" viewBox="0 0 4 14" fill="none" xmlns="http://www.w3.org/2000/svg">
<path d="M1.1665 11.9993C1.1665 12.4596 1.5396 12.8327 1.99984 12.8327C2.46007 12.8327 2.83317 12.4596 2.83317 11.9993C2.83317 11.5391 2.46007 11.166 1.99984 11.166C1.5396 11.166 1.1665 11.5391 1.1665 11.9993Z" stroke="#151B23" stroke-width="2" stroke-linecap="round" stroke-linejoin="round"/>
<path d="M1.1665 6.99935C1.1665 7.45959 1.5396 7.83268 1.99984 7.83268C2.46007 7.83268 2.83317 7.45959 2.83317 6.99935C2.83317 6.53911 2.46007 6.16602 1.99984 6.16602C1.5396 6.16602 1.1665 6.53911 1.1665 6.99935Z" stroke="#151B23" stroke-width="2" stroke-linecap="round" stroke-linejoin="round"/>
<path d="M1.1665 1.99935C1.1665 2.45959 1.5396 2.83268 1.99984 2.83268C2.46007 2.83268 2.83317 2.45959 2.83317 1.99935C2.83317 1.53911 2.46007 1.16602 1.99984 1.16602C1.5396 1.16602 1.1665 1.53911 1.1665 1.99935Z" stroke="#151B23" stroke-width="2" stroke-linecap="round" stroke-linejoin="round"/>
</svg>
