<svg width="18" height="18" viewBox="0 0 18 18" fill="none" xmlns="http://www.w3.org/2000/svg">
<path d="M9 1.5C4.86 1.5 1.5 4.86 1.5 9C1.5 13.14 4.86 16.5 9 16.5C13.14 16.5 16.5 13.14 16.5 9C16.5 4.86 13.14 1.5 9 1.5ZM11.6475 9.0225C11.535 9.135 11.3925 9.1875 11.25 9.1875C11.1075 9.1875 10.965 9.135 10.8525 9.0225L9.5625 7.7325V11.625C9.5625 11.9325 9.3075 12.1875 9 12.1875C8.6925 12.1875 8.4375 11.9325 8.4375 11.625V7.7325L7.1475 9.0225C6.93 9.24 6.57 9.24 6.3525 9.0225C6.135 8.805 6.135 8.445 6.3525 8.2275L8.6025 5.9775C8.82 5.76 9.18 5.76 9.3975 5.9775L11.6475 8.2275C11.865 8.445 11.865 8.805 11.6475 9.0225Z" />
</svg>
