<svg width="16" height="16" viewBox="0 0 16 16" fill="none" xmlns="http://www.w3.org/2000/svg">
<path d="M8.00033 8.00065C9.84127 8.00065 11.3337 6.50827 11.3337 4.66732C11.3337 2.82637 9.84127 1.33398 8.00033 1.33398C6.15938 1.33398 4.66699 2.82637 4.66699 4.66732C4.66699 6.50827 6.15938 8.00065 8.00033 8.00065Z" stroke="#151B23" stroke-linecap="round" stroke-linejoin="round"/>
<path d="M12.807 10.4933L10.447 12.8534C10.3537 12.9467 10.267 13.12 10.247 13.2467L10.1203 14.1467C10.0737 14.4733 10.3004 14.7 10.627 14.6533L11.527 14.5267C11.6537 14.5067 11.8337 14.42 11.9204 14.3267L14.2803 11.9667C14.687 11.56 14.8803 11.0867 14.2803 10.4867C13.687 9.89334 13.2137 10.0867 12.807 10.4933Z" stroke="#151B23" stroke-miterlimit="10" stroke-linecap="round" stroke-linejoin="round"/>
<path d="M12.4668 10.834C12.6668 11.554 13.2268 12.114 13.9468 12.314" stroke="#151B23" stroke-miterlimit="10" stroke-linecap="round" stroke-linejoin="round"/>
<path d="M2.27344 14.6667C2.27344 12.0867 4.84012 10 8.00012 10C8.69346 10 9.3601 10.1 9.9801 10.2867" stroke="#151B23" stroke-linecap="round" stroke-linejoin="round"/>
</svg>
