<svg width="20" height="20" viewBox="0 0 20 20" fill="none" xmlns="http://www.w3.org/2000/svg">
<path d="M10 1.66669C5.40835 1.66669 1.66669 5.40835 1.66669 10C1.66669 14.5917 5.40835 18.3334 10 18.3334C14.5917 18.3334 18.3334 14.5917 18.3334 10C18.3334 5.40835 14.5917 1.66669 10 1.66669ZM13.9834 8.08335L9.25835 12.8084C9.14169 12.925 8.98335 12.9917 8.81669 12.9917C8.65002 12.9917 8.49169 12.925 8.37502 12.8084L6.01669 10.45C5.77502 10.2084 5.77502 9.80835 6.01669 9.56669C6.25835 9.32502 6.65835 9.32502 6.90002 9.56669L8.81669 11.4834L13.1 7.20002C13.3417 6.95835 13.7417 6.95835 13.9834 7.20002C14.225 7.44169 14.225 7.83335 13.9834 8.08335Z" fill="#46A13C"/>
</svg>
