<svg width="18" height="18" viewBox="0 0 18 18" fill="none" xmlns="http://www.w3.org/2000/svg">
<path d="M11.8498 1.65786C11.5423 1.35036 11.0098 1.56036 11.0098 1.98786V4.60536C11.0098 5.70036 11.9398 6.60786 13.0723 6.60786C13.7848 6.61536 14.7748 6.61536 15.6223 6.61536C16.0498 6.61536 16.2748 6.11286 15.9748 5.81286C14.8948 4.72536 12.9598 2.76786 11.8498 1.65786Z" />
<path d="M11.0699 14.4444C9.30742 14.5719 9.30742 17.1219 11.0699 17.2494H15.2399C15.7424 17.2494 16.2374 17.0619 16.6049 16.7244C17.8424 15.6444 17.1824 13.4844 15.5549 13.2819C14.9699 9.76438 9.88492 11.0994 11.0849 14.4519" />
<path d="M16.125 8.3925V10.83C16.125 11.055 15.795 11.16 15.63 11.0025C15.27 10.65 14.8275 10.38 14.3175 10.2225C13.0575 9.8325 11.595 10.215 10.6875 11.175C10.08 11.805 9.7725 12.6075 9.78 13.4775C9.78 13.62 9.7125 13.7475 9.6 13.83C9 14.2875 8.625 15.0075 8.625 15.84C8.625 15.9 8.625 15.96 8.6325 16.02C8.6475 16.26 8.475 16.4925 8.2275 16.4925H6.0525C3.7425 16.4925 1.875 14.9925 1.875 12.315V5.6775C1.875 3 3.7425 1.5 6.0525 1.5H9.2325C9.645 1.5 9.9825 1.8375 9.9825 2.25V4.4175C9.9825 6.2025 11.4225 7.6425 13.2075 7.6425H15.375C15.7875 7.6425 16.125 7.98 16.125 8.3925Z" />
</svg>
