<svg width="18" height="18" viewBox="0 0 18 18" fill="none" xmlns="http://www.w3.org/2000/svg">
<path d="M15.5458 5.71231C15.9922 6.2415 15.523 6.9375 14.8307 6.9375H2.5C1.94771 6.9375 1.5 6.48978 1.5 5.9375V4.815C1.5 2.985 2.985 1.5 4.815 1.5H6.555C7.7775 1.5 8.16 1.8975 8.6475 2.55L9.6975 3.945C9.93 4.2525 9.96 4.29 10.395 4.29H12.4875C13.7135 4.29 14.8117 4.84206 15.5458 5.71231Z" />
<path d="M15.4884 8.06251C16.0393 8.06251 16.4865 8.50816 16.4884 9.05912L16.5 12.4877C16.5 14.7002 14.7 16.5002 12.4875 16.5002H5.5125C3.3 16.5002 1.5 14.7002 1.5 12.4877V9.06269C1.5 8.51041 1.94771 8.0627 2.49999 8.06269L15.4884 8.06251Z" />
</svg>
