<svg width="20" height="20" viewBox="0 0 20 20" fill="none" xmlns="http://www.w3.org/2000/svg">
<path d="M15.3912 14.0253L15.7162 16.6586C15.7995 17.3503 15.0579 17.8336 14.4662 17.4753L10.9745 15.4003C10.5912 15.4003 10.2162 15.3753 9.84955 15.3253C10.4662 14.6003 10.8329 13.6836 10.8329 12.692C10.8329 10.3253 8.78288 8.40868 6.24955 8.40868C5.28288 8.40868 4.39122 8.68366 3.64955 9.16699C3.62455 8.95866 3.61621 8.75032 3.61621 8.53365C3.61621 4.74198 6.90788 1.66699 10.9745 1.66699C15.0412 1.66699 18.3329 4.74198 18.3329 8.53365C18.3329 10.7836 17.1745 12.7753 15.3912 14.0253Z" stroke="#151B23" stroke-linecap="round" stroke-linejoin="round"/>
<path d="M10.8337 12.6915C10.8337 13.6832 10.467 14.5999 9.85033 15.3249C9.02533 16.3249 7.71699 16.9665 6.25033 16.9665L4.07532 18.2582C3.70866 18.4832 3.24199 18.1748 3.29199 17.7498L3.50032 16.1082C2.38366 15.3332 1.66699 14.0915 1.66699 12.6915C1.66699 11.2248 2.45033 9.93318 3.65033 9.16651C4.392 8.68318 5.28366 8.4082 6.25033 8.4082C8.78366 8.4082 10.8337 10.3248 10.8337 12.6915Z" stroke="#151B23" stroke-linecap="round" stroke-linejoin="round"/>
</svg>
