<svg width="128" height="166" viewBox="0 0 128 166" fill="none" xmlns="http://www.w3.org/2000/svg">
<g clip-path="url(#clip0_6688_137826)">
<rect y="0.400391" width="128" height="128" rx="64" fill="#F3F3F3"/>
<g filter="url(#filter0_d_6688_137826)">
<rect x="16" y="29.2002" width="96" height="107.2" rx="6.4" fill="#FEFEFE"/>
<path d="M32.0012 39.5996C29.9052 39.5996 28.2012 41.3036 28.2012 43.3996C28.2012 45.4556 29.8092 47.1196 31.9052 47.1916C31.9692 47.1836 32.0332 47.1836 32.0812 47.1916C32.0972 47.1916 32.1052 47.1916 32.1212 47.1916C32.1292 47.1916 32.1292 47.1916 32.1372 47.1916C34.1852 47.1196 35.7932 45.4556 35.8012 43.3996C35.8012 41.3036 34.0972 39.5996 32.0012 39.5996Z" fill="#F0A7A7"/>
<path d="M36.0651 49.3201C33.8331 47.8321 30.1931 47.8321 27.9451 49.3201C26.9291 50.0001 26.3691 50.9201 26.3691 51.9041C26.3691 52.8881 26.9291 53.8001 27.9371 54.4721C29.0571 55.2241 30.5291 55.6001 32.0011 55.6001C33.4731 55.6001 34.9451 55.2241 36.0651 54.4721C37.0731 53.7921 37.6331 52.8801 37.6331 51.8881C37.6251 50.9041 37.0731 49.9921 36.0651 49.3201Z" fill="#F0A7A7"/>
<rect x="46.4004" y="35.5996" width="28.8" height="4.8" rx="2.4" fill="#ECEFF0"/>
<rect x="76.8008" y="35.5996" width="28.8" height="4.8" rx="2.4" fill="#ECEFF0"/>
<rect x="46.4004" y="42" width="27.2" height="4.8" rx="2.4" fill="#ECEFF0"/>
<rect x="46.4004" y="48.3994" width="50.4" height="4.8" rx="2.4" fill="#ECEFF0"/>
<rect x="46.4004" y="54.7998" width="58.4" height="4.8" rx="2.4" fill="#ECEFF0"/>
<path d="M32.0012 74.7998C29.9052 74.7998 28.2012 76.5038 28.2012 78.5998C28.2012 80.6558 29.8092 82.3198 31.9052 82.3918C31.9692 82.3838 32.0332 82.3838 32.0812 82.3918C32.0972 82.3918 32.1052 82.3918 32.1212 82.3918C32.1292 82.3918 32.1292 82.3918 32.1372 82.3918C34.1852 82.3198 35.7932 80.6558 35.8012 78.5998C35.8012 76.5038 34.0972 74.7998 32.0012 74.7998Z" fill="#A7E3F0"/>
<path d="M36.0651 84.5203C33.8331 83.0323 30.1931 83.0323 27.9451 84.5203C26.9291 85.2003 26.3691 86.1203 26.3691 87.1043C26.3691 88.0883 26.9291 89.0003 27.9371 89.6723C29.0571 90.4243 30.5291 90.8003 32.0011 90.8003C33.4731 90.8003 34.9451 90.4243 36.0651 89.6723C37.0731 88.9923 37.6331 88.0803 37.6331 87.0883C37.6251 86.1043 37.0731 85.1923 36.0651 84.5203Z" fill="#A7E3F0"/>
<rect x="46.4004" y="70.7998" width="28.8" height="4.8" rx="2.4" fill="#ECEFF0"/>
<rect x="76.8008" y="70.7998" width="28.8" height="4.8" rx="2.4" fill="#ECEFF0"/>
<rect x="46.4004" y="77.2002" width="27.2" height="4.8" rx="2.4" fill="#ECEFF0"/>
<rect x="46.4004" y="83.5996" width="50.4" height="4.8" rx="2.4" fill="#ECEFF0"/>
<rect x="46.4004" y="90" width="58.4" height="4.8" rx="2.4" fill="#ECEFF0"/>
<path d="M32.0012 110C29.9052 110 28.2012 111.704 28.2012 113.8C28.2012 115.856 29.8092 117.52 31.9052 117.592C31.9692 117.584 32.0332 117.584 32.0812 117.592C32.0972 117.592 32.1052 117.592 32.1212 117.592C32.1292 117.592 32.1292 117.592 32.1372 117.592C34.1852 117.52 35.7932 115.856 35.8012 113.8C35.8012 111.704 34.0972 110 32.0012 110Z" fill="#F0A7D1"/>
<path d="M36.0651 119.72C33.8331 118.232 30.1931 118.232 27.9451 119.72C26.9291 120.4 26.3691 121.32 26.3691 122.304C26.3691 123.288 26.9291 124.2 27.9371 124.872C29.0571 125.624 30.5291 126 32.0011 126C33.4731 126 34.9451 125.624 36.0651 124.872C37.0731 124.192 37.6331 123.28 37.6331 122.288C37.6251 121.304 37.0731 120.392 36.0651 119.72Z" fill="#F0A7D1"/>
<rect x="46.4004" y="106" width="28.8" height="4.8" rx="2.4" fill="#ECEFF0"/>
<rect x="76.8008" y="106" width="28.8" height="4.8" rx="2.4" fill="#ECEFF0"/>
<rect x="46.4004" y="112.4" width="27.2" height="4.8" rx="2.4" fill="#ECEFF0"/>
<rect x="46.4004" y="118.8" width="50.4" height="4.8" rx="2.4" fill="#ECEFF0"/>
<rect x="46.4004" y="125.2" width="58.4" height="4.8" rx="2.4" fill="#ECEFF0"/>
</g>
</g>
<g filter="url(#filter1_d_6688_137826)">
<rect x="16" y="99.5996" width="96" height="36.8" rx="6.4" fill="#FEFEFE"/>
<path d="M32.0012 110C29.9052 110 28.2012 111.704 28.2012 113.8C28.2012 115.856 29.8092 117.52 31.9052 117.592C31.9692 117.584 32.0332 117.584 32.0812 117.592C32.0972 117.592 32.1052 117.592 32.1212 117.592C32.1292 117.592 32.1292 117.592 32.1372 117.592C34.1852 117.52 35.7932 115.856 35.8012 113.8C35.8012 111.704 34.0972 110 32.0012 110Z" fill="#F0A7D1"/>
<path d="M36.0651 119.72C33.8331 118.232 30.1931 118.232 27.9451 119.72C26.9291 120.4 26.3691 121.32 26.3691 122.304C26.3691 123.288 26.9291 124.2 27.9371 124.872C29.0571 125.624 30.5291 126 32.0011 126C33.4731 126 34.9451 125.624 36.0651 124.872C37.0731 124.192 37.6331 123.28 37.6331 122.288C37.6251 121.304 37.0731 120.392 36.0651 119.72Z" fill="#F0A7D1"/>
<rect x="46.4004" y="106" width="28.8" height="4.8" rx="2.4" fill="#ECEFF0"/>
<rect x="76.8008" y="106" width="28.8" height="4.8" rx="2.4" fill="#ECEFF0"/>
<rect x="46.4004" y="112.4" width="27.2" height="4.8" rx="2.4" fill="#ECEFF0"/>
<rect x="46.4004" y="118.8" width="50.4" height="4.8" rx="2.4" fill="#ECEFF0"/>
<rect x="46.4004" y="125.2" width="58.4" height="4.8" rx="2.4" fill="#ECEFF0"/>
</g>
<defs>
<filter id="filter0_d_6688_137826" x="-1.65517" y="24.7864" width="131.31" height="142.511" filterUnits="userSpaceOnUse" color-interpolation-filters="sRGB">
<feFlood flood-opacity="0" result="BackgroundImageFix"/>
<feColorMatrix in="SourceAlpha" type="matrix" values="0 0 0 0 0 0 0 0 0 0 0 0 0 0 0 0 0 0 127 0" result="hardAlpha"/>
<feMorphology radius="15.4483" operator="erode" in="SourceAlpha" result="effect1_dropShadow_6688_137826"/>
<feOffset dy="13.2414"/>
<feGaussianBlur stdDeviation="16.5517"/>
<feComposite in2="hardAlpha" operator="out"/>
<feColorMatrix type="matrix" values="0 0 0 0 0 0 0 0 0 0 0 0 0 0 0 0 0 0 0.2 0"/>
<feBlend mode="normal" in2="BackgroundImageFix" result="effect1_dropShadow_6688_137826"/>
<feBlend mode="normal" in="SourceGraphic" in2="effect1_dropShadow_6688_137826" result="shape"/>
</filter>
<filter id="filter1_d_6688_137826" x="3.2" y="99.5996" width="121.6" height="65.5998" filterUnits="userSpaceOnUse" color-interpolation-filters="sRGB">
<feFlood flood-opacity="0" result="BackgroundImageFix"/>
<feColorMatrix in="SourceAlpha" type="matrix" values="0 0 0 0 0 0 0 0 0 0 0 0 0 0 0 0 0 0 127 0" result="hardAlpha"/>
<feMorphology radius="14.4" operator="erode" in="SourceAlpha" result="effect1_dropShadow_6688_137826"/>
<feOffset dy="16"/>
<feGaussianBlur stdDeviation="13.6"/>
<feComposite in2="hardAlpha" operator="out"/>
<feColorMatrix type="matrix" values="0 0 0 0 0 0 0 0 0 0 0 0 0 0 0 0 0 0 0.2 0"/>
<feBlend mode="normal" in2="BackgroundImageFix" result="effect1_dropShadow_6688_137826"/>
<feBlend mode="normal" in="SourceGraphic" in2="effect1_dropShadow_6688_137826" result="shape"/>
</filter>
<clipPath id="clip0_6688_137826">
<rect y="0.400391" width="128" height="128" rx="64" fill="white"/>
</clipPath>
</defs>
</svg>
