<svg width="14" height="14" viewBox="0 0 14 14" fill="none" xmlns="http://www.w3.org/2000/svg">
<path d="M3.33203 12.0001C3.33203 12.4603 3.70513 12.8334 4.16536 12.8334C4.6256 12.8334 4.9987 12.4603 4.9987 12.0001C4.9987 11.5398 4.6256 11.1667 4.16536 11.1667C3.70513 11.1667 3.33203 11.5398 3.33203 12.0001Z" />
<path d="M3.33203 7.00008C3.33203 7.46032 3.70513 7.83342 4.16536 7.83342C4.6256 7.83342 4.9987 7.46032 4.9987 7.00008C4.9987 6.53984 4.6256 6.16675 4.16536 6.16675C3.70513 6.16675 3.33203 6.53984 3.33203 7.00008Z" />
<path d="M3.33203 2.00008C3.33203 2.46032 3.70513 2.83341 4.16536 2.83341C4.6256 2.83341 4.9987 2.46032 4.9987 2.00008C4.9987 1.53984 4.6256 1.16675 4.16536 1.16675C3.70513 1.16675 3.33203 1.53984 3.33203 2.00008Z" />
<path d="M9 12.0001C9 12.4603 9.3731 12.8334 9.83333 12.8334C10.2936 12.8334 10.6667 12.4603 10.6667 12.0001C10.6667 11.5398 10.2936 11.1667 9.83333 11.1667C9.3731 11.1667 9 11.5398 9 12.0001Z" />
<path d="M9 7.00008C9 7.46032 9.3731 7.83342 9.83333 7.83342C10.2936 7.83342 10.6667 7.46032 10.6667 7.00008C10.6667 6.53984 10.2936 6.16675 9.83333 6.16675C9.3731 6.16675 9 6.53984 9 7.00008Z" />
<path d="M9 2.00008C9 2.46032 9.3731 2.83341 9.83333 2.83341C10.2936 2.83341 10.6667 2.46032 10.6667 2.00008C10.6667 1.53984 10.2936 1.16675 9.83333 1.16675C9.3731 1.16675 9 1.53984 9 2.00008Z" />
</svg>
