<svg width="18" height="18" viewBox="0 0 18 18" fill="none" xmlns="http://www.w3.org/2000/svg">
<path d="M13.8528 12.6225L14.1453 14.9925C14.2203 15.615 13.5528 16.05 13.0203 15.7275L10.4253 14.1825C10.2453 14.0775 10.2003 13.8525 10.2978 13.6725C10.6728 12.9825 10.8753 12.2025 10.8753 11.4225C10.8753 8.6775 8.52029 6.4425 5.62529 6.4425C5.03279 6.4425 4.45529 6.5325 3.91529 6.7125C3.63779 6.8025 3.36779 6.5475 3.43529 6.2625C4.11779 3.5325 6.74279 1.5 9.87779 1.5C13.5378 1.5 16.5003 4.2675 16.5003 7.68C16.5003 9.705 15.4578 11.4975 13.8528 12.6225Z" />
<path d="M9.75 11.4234C9.75 12.3159 9.42 13.1409 8.865 13.7934C8.1225 14.6934 6.945 15.2709 5.625 15.2709L3.6675 16.4334C3.3375 16.6359 2.9175 16.3584 2.9625 15.9759L3.15 14.4984C2.145 13.8009 1.5 12.6834 1.5 11.4234C1.5 10.1034 2.205 8.94086 3.285 8.25086C3.9525 7.81586 4.755 7.56836 5.625 7.56836C7.905 7.56836 9.75 9.29336 9.75 11.4234Z" />
</svg>
