<svg width="18" height="18" viewBox="0 0 18 18" fill="none" xmlns="http://www.w3.org/2000/svg">
<path d="M15.8173 5.23563C15.1798 4.53063 14.1148 4.17813 12.5698 4.17813H12.3898V4.14813C12.3898 2.88813 12.3898 1.32812 9.56978 1.32812H8.42978C5.60978 1.32812 5.60978 2.89563 5.60978 4.14813V4.18563H5.42978C3.87728 4.18563 2.81978 4.53812 2.18228 5.24312C1.43978 6.06812 1.46228 7.17812 1.53728 7.93562L1.54478 7.98812L1.59724 8.53891C1.6115 8.68868 1.69223 8.82407 1.81829 8.90618C2.00007 9.02458 2.26513 9.19415 2.42978 9.28563C2.53478 9.35313 2.64728 9.41313 2.75978 9.47313C4.04228 10.1781 5.45228 10.6506 6.88478 10.8831C6.95228 11.5881 7.25978 12.4131 8.90228 12.4131C10.5448 12.4131 10.8673 11.5956 10.9198 10.8681C12.4498 10.6206 13.9273 10.0881 15.2623 9.30812C15.3073 9.28562 15.3373 9.26312 15.3748 9.24062C15.6567 9.08125 15.9487 8.88681 16.218 8.69415C16.3313 8.61306 16.4035 8.48688 16.4189 8.34837L16.4248 8.29563L16.4623 7.94312C16.4698 7.89812 16.4698 7.86062 16.4773 7.80812C16.5373 7.05062 16.5223 6.01562 15.8173 5.23563ZM9.81728 10.3731C9.81728 11.1681 9.81728 11.2881 8.89478 11.2881C7.97228 11.2881 7.97228 11.1456 7.97228 10.3806V9.43563H9.81728V10.3731ZM6.68228 4.17813V4.14813C6.68228 2.87313 6.68228 2.40062 8.42978 2.40062H9.56978C11.3173 2.40062 11.3173 2.88063 11.3173 4.14813V4.18563H6.68228V4.17813Z" />
<path d="M15.4531 10.3967C15.8074 10.23 16.2142 10.511 16.1788 10.9009L15.9299 13.643C15.7724 15.143 15.1574 16.673 11.8574 16.673H6.14238C2.84238 16.673 2.22738 15.143 2.06988 13.6505L1.83417 11.0577C1.79913 10.6722 2.19687 10.3918 2.55017 10.5498C3.41217 10.9355 4.7855 11.5221 5.69043 11.7701C5.85424 11.815 5.98783 11.9334 6.06388 12.0853C6.53151 13.0192 7.50698 13.5155 8.90238 13.5155C10.2841 13.5155 11.2712 13.0001 11.7407 12.063C11.8169 11.911 11.9503 11.7927 12.1142 11.7475C13.0776 11.4817 14.547 10.823 15.4531 10.3967Z" />
</svg>
