<svg width="16" height="16" viewBox="0 0 16 16" fill="none" xmlns="http://www.w3.org/2000/svg">
<path d="M13.2203 5.80052L10.2003 2.78052C9.56698 2.14719 8.69364 1.80719 7.80031 1.85385L4.46698 2.01385C3.13364 2.07385 2.07364 3.13385 2.00698 4.46052L1.84698 7.79385C1.80698 8.68719 2.14031 9.56052 2.77364 10.1939L5.79364 13.2139C7.03364 14.4539 9.04698 14.4539 10.2936 13.2139L13.2203 10.2872C14.467 9.05385 14.467 7.04052 13.2203 5.80052ZM6.33364 8.25385C5.27364 8.25385 4.41364 7.39385 4.41364 6.33385C4.41364 5.27385 5.27364 4.41385 6.33364 4.41385C7.39364 4.41385 8.25364 5.27385 8.25364 6.33385C8.25364 7.39385 7.39364 8.25385 6.33364 8.25385Z" />
</svg>
