<svg width="14" height="14" viewBox="0 0 14 14" fill="none" xmlns="http://www.w3.org/2000/svg">
<path d="M3.5 5.83342V4.66675C3.5 2.73591 4.08333 1.16675 7 1.16675C9.91667 1.16675 10.5 2.73591 10.5 4.66675V5.83342"  stroke-linecap="round" stroke-linejoin="round"/>
<path d="M7.0013 10.7917C7.80672 10.7917 8.45964 10.1387 8.45964 9.33333C8.45964 8.52792 7.80672 7.875 7.0013 7.875C6.19589 7.875 5.54297 8.52792 5.54297 9.33333C5.54297 10.1387 6.19589 10.7917 7.0013 10.7917Z"  stroke-linecap="round" stroke-linejoin="round"/>
<path d="M9.91797 12.8333H4.08464C1.7513 12.8333 1.16797 12.2499 1.16797 9.91659V8.74992C1.16797 6.41659 1.7513 5.83325 4.08464 5.83325H9.91797C12.2513 5.83325 12.8346 6.41659 12.8346 8.74992V9.91659C12.8346 12.2499 12.2513 12.8333 9.91797 12.8333Z"  stroke-linecap="round" stroke-linejoin="round"/>
</svg>
