<svg width="14" height="14" viewBox="0 0 14 14" fill="none" xmlns="http://www.w3.org/2000/svg">
<path d="M6.41797 10.5001C6.41797 10.8222 6.67914 11.0834 7.0013 11.0834C7.32347 11.0834 7.58464 10.8222 7.58464 10.5001C7.58464 10.1779 7.32347 9.91675 7.0013 9.91675C6.67914 9.91675 6.41797 10.1779 6.41797 10.5001Z"  stroke-linecap="round" stroke-linejoin="round"/>
<path d="M6.41797 7.00008C6.41797 7.32225 6.67914 7.58341 7.0013 7.58341C7.32347 7.58341 7.58464 7.32225 7.58464 7.00008C7.58464 6.67792 7.32347 6.41675 7.0013 6.41675C6.67914 6.41675 6.41797 6.67792 6.41797 7.00008Z"  stroke-linecap="round" stroke-linejoin="round"/>
<path d="M6.41797 3.50008C6.41797 3.82225 6.67914 4.08341 7.0013 4.08341C7.32347 4.08341 7.58464 3.82225 7.58464 3.50008C7.58464 3.17792 7.32347 2.91675 7.0013 2.91675C6.67914 2.91675 6.41797 3.17792 6.41797 3.50008Z"  stroke-linecap="round" stroke-linejoin="round"/>
</svg>
