<svg width="20" height="20" viewBox="0 0 20 20" fill="none" xmlns="http://www.w3.org/2000/svg">
<path d="M9.16699 14.9993C9.16699 15.4596 9.54009 15.8327 10.0003 15.8327C10.4606 15.8327 10.8337 15.4596 10.8337 14.9993C10.8337 14.5391 10.4606 14.166 10.0003 14.166C9.54009 14.166 9.16699 14.5391 9.16699 14.9993Z" stroke="#151B23" stroke-linecap="round" stroke-linejoin="round"/>
<path d="M9.16699 9.99935C9.16699 10.4596 9.54009 10.8327 10.0003 10.8327C10.4606 10.8327 10.8337 10.4596 10.8337 9.99935C10.8337 9.53911 10.4606 9.16602 10.0003 9.16602C9.54009 9.16602 9.16699 9.53911 9.16699 9.99935Z" stroke="#151B23" stroke-linecap="round" stroke-linejoin="round"/>
<path d="M9.16699 4.99935C9.16699 5.45959 9.54009 5.83268 10.0003 5.83268C10.4606 5.83268 10.8337 5.45959 10.8337 4.99935C10.8337 4.53911 10.4606 4.16602 10.0003 4.16602C9.54009 4.16602 9.16699 4.53911 9.16699 4.99935Z" stroke="#151B23" stroke-linecap="round" stroke-linejoin="round"/>
</svg>
