<svg width="18" height="18" viewBox="0 0 18 18" fill="none" xmlns="http://www.w3.org/2000/svg">
<path d="M12.75 1.82227H5.25C3 1.82227 1.5 3.32227 1.5 5.57227V10.0723C1.5 12.3223 3 13.8223 5.25 13.8223H8.25L11.5875 16.0423C12.0825 16.3723 12.75 16.0198 12.75 15.4198V13.8223C15 13.8223 16.5 12.3223 16.5 10.0723V5.57227C16.5 3.32227 15 1.82227 12.75 1.82227ZM11.625 8.43727H6.375C6.0675 8.43727 5.8125 8.18227 5.8125 7.87477C5.8125 7.56727 6.0675 7.31227 6.375 7.31227H11.625C11.9325 7.31227 12.1875 7.56727 12.1875 7.87477C12.1875 8.18227 11.9325 8.43727 11.625 8.43727Z" />
</svg>
