<svg width="18" height="18" viewBox="0 0 18 18" fill="none" xmlns="http://www.w3.org/2000/svg">
<path d="M14.6253 5.62516L13.5078 6.74266L11.2578 4.49266L12.3753 3.37516C12.6903 3.06016 13.0953 2.91016 13.5003 2.91016C13.9053 2.91016 14.3103 3.06016 14.6253 3.37516C15.2478 3.99766 15.2478 5.00266 14.6253 5.62516Z" />
<path d="M12.9826 7.27539L4.87508 15.3754C4.25258 15.9979 3.24758 15.9979 2.62508 15.3754C2.00258 14.7529 2.00258 13.7479 2.62508 13.1254L10.7326 5.02539L12.9826 7.27539Z" />
<path d="M7.46288 2.62538L7.77038 1.58288C7.80038 1.48538 7.77038 1.38038 7.70288 1.30538C7.63538 1.23038 7.51538 1.20038 7.41788 1.23038L6.37538 1.53788L5.33288 1.23038C5.23538 1.20038 5.13038 1.23038 5.05538 1.29788C4.98038 1.37288 4.95788 1.47788 4.98788 1.57538L5.28788 2.62538L4.98038 3.66788C4.95038 3.76538 4.98038 3.87038 5.04788 3.94538C5.12288 4.02038 5.22788 4.04288 5.32538 4.01288L6.37538 3.71288L7.41788 4.02038C7.44788 4.02788 7.47038 4.03538 7.50038 4.03538C7.57538 4.03538 7.64288 4.00538 7.70288 3.95288C7.77788 3.87788 7.80038 3.77288 7.77038 3.67538L7.46288 2.62538Z" />
<path d="M4.46288 7.12538L4.77038 6.08288C4.80038 5.98538 4.77038 5.88038 4.70288 5.80538C4.62788 5.73038 4.52288 5.70788 4.42538 5.73788L3.37538 6.03788L2.33288 5.73038C2.23538 5.70038 2.13038 5.73038 2.05538 5.79788C1.98038 5.87288 1.95788 5.97788 1.98788 6.07538L2.28788 7.12538L1.98038 8.16788C1.95038 8.26538 1.98038 8.37038 2.04788 8.44538C2.12288 8.52038 2.22788 8.54288 2.32538 8.51288L3.36788 8.20538L4.41038 8.51288C4.43288 8.52038 4.46288 8.52038 4.49288 8.52038C4.56788 8.52038 4.63538 8.49038 4.69538 8.43788C4.77038 8.36288 4.79288 8.25788 4.76288 8.16038L4.46288 7.12538Z" />
<path d="M15.7128 10.875L16.0203 9.83247C16.0503 9.73497 16.0203 9.62997 15.9528 9.55497C15.8778 9.47997 15.7728 9.45747 15.6753 9.48747L14.6328 9.79497L13.5903 9.48747C13.4928 9.45747 13.3878 9.48747 13.3128 9.55497C13.2378 9.62997 13.2153 9.73497 13.2453 9.83247L13.5528 10.875L13.2453 11.9175C13.2153 12.015 13.2453 12.12 13.3128 12.195C13.3878 12.27 13.4928 12.2925 13.5903 12.2625L14.6328 11.955L15.6753 12.2625C15.6978 12.27 15.7278 12.27 15.7578 12.27C15.8328 12.27 15.9003 12.24 15.9603 12.1875C16.0353 12.1125 16.0578 12.0075 16.0278 11.91L15.7128 10.875Z" />
</svg>
