<svg width="15" height="14" viewBox="0 0 15 14" fill="none" xmlns="http://www.w3.org/2000/svg">
<path d="M7.5 8.75C8.4665 8.75 9.25 7.9665 9.25 7C9.25 6.0335 8.4665 5.25 7.5 5.25C6.5335 5.25 5.75 6.0335 5.75 7C5.75 7.9665 6.5335 8.75 7.5 8.75Z" stroke="#1761D8" stroke-miterlimit="10" stroke-linecap="round" stroke-linejoin="round"/>
<path d="M1.66797 7.51338V6.48671C1.66797 5.88004 2.1638 5.37838 2.7763 5.37838C3.83214 5.37838 4.2638 4.63171 3.73297 3.71588C3.42964 3.19088 3.61047 2.50838 4.1413 2.20504L5.15047 1.62754C5.6113 1.35338 6.2063 1.51671 6.48047 1.97754L6.54464 2.08838C7.06964 3.00421 7.93297 3.00421 8.4638 2.08838L8.52797 1.97754C8.80214 1.51671 9.39714 1.35338 9.85797 1.62754L10.8671 2.20504C11.398 2.50838 11.5788 3.19088 11.2755 3.71588C10.7446 4.63171 11.1763 5.37838 12.2321 5.37838C12.8388 5.37838 13.3405 5.87421 13.3405 6.48671V7.51338C13.3405 8.12004 12.8446 8.62171 12.2321 8.62171C11.1763 8.62171 10.7446 9.36838 11.2755 10.2842C11.5788 10.815 11.398 11.4917 10.8671 11.795L9.85797 12.3725C9.39714 12.6467 8.80214 12.4834 8.52797 12.0225L8.4638 11.9117C7.9388 10.9959 7.07547 10.9959 6.54464 11.9117L6.48047 12.0225C6.2063 12.4834 5.6113 12.6467 5.15047 12.3725L4.1413 11.795C3.61047 11.4917 3.42964 10.8092 3.73297 10.2842C4.2638 9.36838 3.83214 8.62171 2.7763 8.62171C2.1638 8.62171 1.66797 8.12004 1.66797 7.51338Z" stroke="#1761D8" stroke-miterlimit="10" stroke-linecap="round" stroke-linejoin="round"/>
</svg>
