<svg width="16" height="16" viewBox="0 0 16 16" fill="none" xmlns="http://www.w3.org/2000/svg">
<path d="M14.668 4.33331H10.668" stroke="#151B23" stroke-miterlimit="10" stroke-linecap="round" stroke-linejoin="round"/>
<path d="M3.9987 4.33331H1.33203" stroke="#151B23" stroke-miterlimit="10" stroke-linecap="round" stroke-linejoin="round"/>
<path d="M6.66536 6.66667C7.95403 6.66667 8.9987 5.622 8.9987 4.33333C8.9987 3.04467 7.95403 2 6.66536 2C5.3767 2 4.33203 3.04467 4.33203 4.33333C4.33203 5.622 5.3767 6.66667 6.66536 6.66667Z" stroke="#151B23" stroke-miterlimit="10" stroke-linecap="round" stroke-linejoin="round"/>
<path d="M14.6667 11.6667H12" stroke="#151B23" stroke-miterlimit="10" stroke-linecap="round" stroke-linejoin="round"/>
<path d="M5.33203 11.6667H1.33203" stroke="#151B23" stroke-miterlimit="10" stroke-linecap="round" stroke-linejoin="round"/>
<path d="M9.33333 14C10.622 14 11.6667 12.9553 11.6667 11.6666C11.6667 10.378 10.622 9.33331 9.33333 9.33331C8.04467 9.33331 7 10.378 7 11.6666C7 12.9553 8.04467 14 9.33333 14Z" stroke="#151B23" stroke-miterlimit="10" stroke-linecap="round" stroke-linejoin="round"/>
</svg>
