<svg width="16" height="16" viewBox="0 0 16 16" fill="none" xmlns="http://www.w3.org/2000/svg">
<path d="M13.3151 6.66669H2.64844V12C2.64844 14 3.3151 14.6667 5.3151 14.6667H10.6484C12.6484 14.6667 13.3151 14 13.3151 12V6.66669Z" stroke="#151B23" stroke-miterlimit="10" stroke-linecap="round" stroke-linejoin="round"/>
<path d="M14.3346 4.66665V5.33331C14.3346 6.06665 13.9813 6.66665 13.0013 6.66665H3.0013C1.9813 6.66665 1.66797 6.06665 1.66797 5.33331V4.66665C1.66797 3.93331 1.9813 3.33331 3.0013 3.33331H13.0013C13.9813 3.33331 14.3346 3.93331 14.3346 4.66665Z" stroke="#151B23" stroke-miterlimit="10" stroke-linecap="round" stroke-linejoin="round"/>
<path d="M7.75921 3.33336H4.07921C3.85254 3.08669 3.85921 2.70669 4.09921 2.46669L5.04587 1.52002C5.29254 1.27336 5.69921 1.27336 5.94587 1.52002L7.75921 3.33336Z" stroke="#151B23" stroke-miterlimit="10" stroke-linecap="round" stroke-linejoin="round"/>
<path d="M11.9144 3.33336H8.23438L10.0477 1.52002C10.2944 1.27336 10.701 1.27336 10.9477 1.52002L11.8944 2.46669C12.1344 2.70669 12.141 3.08669 11.9144 3.33336Z" stroke="#151B23" stroke-miterlimit="10" stroke-linecap="round" stroke-linejoin="round"/>
<path d="M5.96094 6.66669V10.0934C5.96094 10.6267 6.5476 10.94 6.99427 10.6534L7.62094 10.24C7.8476 10.0934 8.13427 10.0934 8.35427 10.24L8.9476 10.64C9.3876 10.9334 9.98094 10.62 9.98094 10.0867V6.66669H5.96094Z" stroke="#151B23" stroke-miterlimit="10" stroke-linecap="round" stroke-linejoin="round"/>
</svg>
