<svg width="16" height="16" viewBox="0 0 16 16" fill="none" xmlns="http://www.w3.org/2000/svg">
<path d="M6.09766 6.04908C6.21152 5.69822 6.4201 5.38597 6.70052 5.14632C6.98094 4.90667 7.32253 4.74919 7.68685 4.69138C8.05117 4.63358 8.42415 4.6776 8.76497 4.81868C9.1058 4.95977 9.40097 5.1925 9.61784 5.49089C9.83471 5.78927 9.96459 6.14171 9.99358 6.50944C10.0226 6.87717 9.94923 7.24586 9.78179 7.57454C9.61436 7.90323 9.35958 8.17899 9.04507 8.37174C8.73056 8.56449 8.36887 8.66651 8 8.66651V9.33349M8 14C4.68629 14 2 11.3137 2 8C2 4.68629 4.68629 2 8 2C11.3137 2 14 4.68629 14 8C14 11.3137 11.3137 14 8 14ZM8.0332 11.3333V11.4L7.9668 11.4001V11.3333H8.0332Z" stroke="#151B23" stroke-linecap="round" stroke-linejoin="round"/>
</svg>
