<svg width="16" height="16" viewBox="0 0 16 16" fill="none" xmlns="http://www.w3.org/2000/svg">
<path d="M8.10573 7.24665C8.03906 7.23998 7.95906 7.23998 7.88573 7.24665C6.29906 7.19331 5.03906 5.89331 5.03906 4.29331C5.03906 2.65998 6.35906 1.33331 7.99906 1.33331C9.6324 1.33331 10.9591 2.65998 10.9591 4.29331C10.9524 5.89331 9.6924 7.19331 8.10573 7.24665Z" stroke="#151B23" stroke-linecap="round" stroke-linejoin="round"/>
<path d="M4.7725 9.70669C3.15917 10.7867 3.15917 12.5467 4.7725 13.62C6.60583 14.8467 9.6125 14.8467 11.4458 13.62C13.0592 12.54 13.0592 10.78 11.4458 9.70669C9.61917 8.48669 6.6125 8.48669 4.7725 9.70669Z" stroke="#151B23" stroke-linecap="round" stroke-linejoin="round"/>
</svg>
