<svg width="14" height="14" viewBox="0 0 14 14" fill="none" xmlns="http://www.w3.org/2000/svg">
<path fill-rule="evenodd" clip-rule="evenodd" d="M4.05239 2.38264C4.43067 2.37562 4.80842 2.4144 5.17738 2.49815C5.48803 2.56597 5.78298 2.69218 6.04653 2.87006C6.28994 3.04695 6.48254 3.28476 6.60499 3.55961C6.74571 3.89759 6.8136 4.26144 6.80423 4.62743C6.82021 5.02929 6.71758 5.42697 6.50912 5.7709C6.28982 6.09574 5.98669 6.35517 5.63188 6.52167C6.11338 6.65148 6.53276 6.94882 6.81462 7.36021C7.0852 7.79612 7.2212 8.30215 7.2056 8.81496C7.21452 9.22383 7.12998 9.62935 6.95842 10.0006C6.79984 10.3244 6.56765 10.6067 6.28042 10.8247C5.98471 11.0403 5.65195 11.1999 5.29866 11.2954C4.93228 11.3967 4.5538 11.4476 4.17367 11.4467H0V2.38264H4.05239ZM3.81157 6.04868C4.10879 6.06094 4.40137 5.97196 4.64145 5.79631C4.75643 5.69395 4.84587 5.56612 4.90263 5.42303C4.95938 5.27993 4.98188 5.12554 4.96832 4.9722C4.97602 4.79311 4.94035 4.6148 4.86437 4.45244C4.79991 4.32317 4.69969 4.21513 4.57561 4.14117C4.44994 4.05975 4.30875 4.00527 4.16096 3.98119C4.00061 3.95013 3.83743 3.936 3.67412 3.93904H1.89077V6.05677H3.81157V6.04868ZM3.91552 9.90761C4.09527 9.91005 4.27464 9.89065 4.44972 9.84986C4.60971 9.81453 4.76144 9.74886 4.89671 9.6564C5.02922 9.56399 5.13629 9.43964 5.20799 9.29487C5.29112 9.11028 5.32932 8.9086 5.31945 8.70639C5.33747 8.52212 5.31307 8.33616 5.2481 8.16278C5.18313 7.9894 5.07933 7.83319 4.94464 7.70614C4.65918 7.49589 4.30935 7.39173 3.95537 7.41161H1.89077V9.90761H3.91552Z" fill="#0057FF"/>
<path fill-rule="evenodd" clip-rule="evenodd" d="M9.89851 9.87407C10.0469 10.0116 10.2217 10.1176 10.4123 10.1855C10.603 10.2534 10.8054 10.2818 11.0073 10.2691C11.3275 10.2772 11.6414 10.1798 11.9007 9.99189C12.1117 9.8547 12.2715 9.65169 12.3552 9.41437H13.8631C13.7025 10.09 13.3101 10.6879 12.7543 11.1042C12.2211 11.4581 11.591 11.6373 10.9513 11.617C10.4948 11.623 10.0417 11.5372 9.61899 11.3646C9.23661 11.2052 8.89367 10.9641 8.61413 10.6583C8.33564 10.3379 8.12169 9.9667 7.98406 9.5651C7.82958 9.1162 7.75396 8.64395 7.76057 8.16926C7.75775 7.70253 7.83591 7.23884 7.99157 6.79882C8.20069 6.1798 8.60054 5.64293 9.13373 5.26527C9.66693 4.8876 10.3061 4.68855 10.9594 4.69668C11.4418 4.6866 11.9187 4.79949 12.3454 5.02471C12.7311 5.2362 13.0638 5.53238 13.3185 5.89098C13.5791 6.26726 13.7658 6.68958 13.8689 7.13551C13.9819 7.61437 14.0222 8.1075 13.9884 8.59835H9.49714C9.46075 9.05951 9.60463 9.51682 9.89851 9.87407ZM11.869 6.42691C11.7433 6.3012 11.5921 6.20388 11.4257 6.14152C11.2592 6.07916 11.0813 6.0532 10.904 6.06539C10.6687 6.05641 10.4351 6.10854 10.226 6.21669C10.0602 6.30797 9.91381 6.43078 9.79514 6.57822C9.68997 6.71645 9.61162 6.87315 9.56413 7.04023C9.52134 7.17956 9.49461 7.32333 9.48443 7.46874H12.2663C12.2421 7.08969 12.104 6.72678 11.8701 6.42749L11.869 6.42691Z" fill="#0057FF"/>
<path d="M9.12582 2.98784H12.6117V3.87894H9.12582V2.98784Z" fill="#0057FF"/>
</svg>
