<svg width="14" height="14" viewBox="0 0 14 14" fill="none" xmlns="http://www.w3.org/2000/svg">
<path fill-rule="evenodd" clip-rule="evenodd" d="M1.54455 2.16452C1.57841 2.12546 1.62046 2.09426 1.66774 2.07309C1.71502 2.05193 1.76638 2.04133 1.81822 2.04202L12.1821 2.04344C12.234 2.04277 12.2853 2.0534 12.3326 2.07458C12.3798 2.09577 12.4218 2.12698 12.4557 2.16604C12.4895 2.20511 12.5144 2.25107 12.5285 2.3007C12.5425 2.35033 12.5455 2.40242 12.5372 2.45333L11.0297 11.6618C11.0161 11.7454 10.9727 11.8214 10.9076 11.8759C10.8424 11.9303 10.7597 11.9597 10.6746 11.9586H3.44272C3.32923 11.9576 3.21972 11.9169 3.1334 11.8436C3.04708 11.7703 2.98946 11.6691 2.97066 11.5577L1.46311 2.45145C1.45478 2.40053 1.45775 2.34842 1.47182 2.29877C1.48589 2.24912 1.51072 2.20314 1.54455 2.16405V2.16452ZM5.85792 8.62294H8.16564L8.72482 5.37394H5.23246L5.85792 8.62294Z" fill="#2684FF"/>
<path d="M11.9582 5.25H8.58247L8.01554 8.55976H5.6773L2.9165 11.8398C3.0038 11.9151 3.11555 11.9573 3.23115 11.9583H10.5591C10.6453 11.9594 10.729 11.9295 10.7951 11.874C10.8611 11.8185 10.905 11.7411 10.9188 11.6559L11.9582 5.25Z" fill="url(#paint0_linear_428_31159)"/>
<defs>
<linearGradient id="paint0_linear_428_31159" x1="9.8022" y1="4.10723" x2="5.89884" y2="9.64588" gradientUnits="userSpaceOnUse">
<stop offset="0.18" stop-color="#0052CC"/>
<stop offset="1" stop-color="#2684FF"/>
</linearGradient>
</defs>
</svg>
