<svg width="14" height="14" viewBox="0 0 14 14" fill="none" xmlns="http://www.w3.org/2000/svg">
<circle cx="7.00098" cy="7" r="7" fill="#FFABE7"/>
<path fill-rule="evenodd" clip-rule="evenodd" d="M7.00081 12.8337C10.2225 12.8337 12.8341 10.222 12.8341 7.00033C12.8341 3.77867 10.2225 1.16699 7.00081 1.16699C3.77915 1.16699 1.16748 3.77867 1.16748 7.00033C1.16748 10.222 3.77915 12.8337 7.00081 12.8337ZM8.26599 11.7581C7.86228 11.8651 7.43821 11.9222 7.00081 11.9222C6.33888 11.9222 5.70747 11.7915 5.13096 11.5546C5.67802 9.5353 7.19081 8.08904 8.92384 7.44493C9.2244 8.90159 9.00052 10.4637 8.26599 11.7581ZM9.56141 11.2045C10.0315 9.92432 10.124 8.51415 9.83597 7.18449C10.5315 7.04409 11.2408 7.0312 11.9202 7.15933C11.8658 8.87326 10.9351 10.3661 9.56141 11.2045ZM11.8562 6.18946C11.1042 6.07914 10.3297 6.11141 9.57355 6.27293C9.42703 5.86187 9.24208 5.46588 9.02174 5.08987C9.64329 4.73089 10.21 4.2775 10.6952 3.74814C11.29 4.42322 11.7026 5.26261 11.8562 6.18946ZM10.0047 3.10109C9.56704 3.58024 9.05217 3.98771 8.48742 4.30531C8.10623 3.82081 7.66522 3.3846 7.17354 3.01005L7.16165 3.00101L7.14933 2.99279C7.14927 2.99275 7.14822 2.99204 7.14597 2.99046C7.14335 2.9886 7.13985 2.9861 7.13537 2.98284C7.12629 2.97625 7.11504 2.96792 7.10155 2.95782C7.08623 2.94636 7.07087 2.93476 7.05436 2.92231L7.051 2.91977C7.03764 2.90968 7.02349 2.899 7.008 2.88736C6.97449 2.86217 6.93774 2.83476 6.90398 2.81057C6.88039 2.79367 6.84649 2.76975 6.81185 2.74866L6.78989 2.73347C6.74484 2.70227 6.67713 2.65537 6.61565 2.61762C6.55821 2.57735 6.48059 2.53148 6.42973 2.5017C6.38053 2.47289 6.32755 2.44265 6.29462 2.42386L6.26935 2.40941C6.2633 2.40588 6.25803 2.40294 6.25585 2.40172L6.25543 2.40149C6.25159 2.39934 6.24733 2.397 6.24349 2.39489L6.23833 2.39204C6.23098 2.388 6.22363 2.38395 6.216 2.3797C6.20725 2.37483 6.20017 2.37082 6.19501 2.36781L6.19146 2.36532L6.1789 2.35765C6.13345 2.32988 6.08609 2.30452 6.06039 2.29075L6.05089 2.28566L6.0399 2.27975L6.02862 2.27442C6.00423 2.2629 5.96724 2.24528 5.92557 2.22541L5.92459 2.22494C5.91151 2.21871 5.89789 2.21222 5.88414 2.20567C6.24292 2.12245 6.61673 2.07845 7.00081 2.07845C8.13173 2.07845 9.17356 2.45987 10.0047 3.10109ZM4.58788 2.7095C3.85785 3.12091 3.24336 3.71324 2.80525 4.42566C3.32641 4.68997 3.88617 4.87672 4.46282 4.97939L4.46406 4.9796L4.4653 4.97984C5.1779 5.11062 5.91252 5.10712 6.63173 4.97745C6.96166 4.91788 7.2857 4.82932 7.60008 4.71429C7.30459 4.36477 6.97268 4.04766 6.60956 3.76995C6.58468 3.75271 6.55712 3.73224 6.53459 3.71538C6.51752 3.70262 6.49747 3.68748 6.47769 3.67256L6.47717 3.67216C6.46406 3.66227 6.4511 3.65249 6.43923 3.64357C6.40675 3.61914 6.37723 3.59718 6.35279 3.57968C6.33691 3.5683 6.32779 3.56216 6.32403 3.55963C6.32264 3.55869 6.32198 3.55825 6.322 3.55822L6.30803 3.55035L6.29161 3.53921C6.26744 3.5228 6.24591 3.50791 6.22619 3.49426L6.226 3.49413C6.18278 3.46422 6.14813 3.44025 6.11298 3.41939L6.08994 3.4057L6.06919 3.38998C6.0698 3.39045 6.06945 3.39021 6.06794 3.3892L6.06774 3.38907C6.06405 3.38662 6.05435 3.38019 6.03646 3.36908C6.01243 3.35418 5.98297 3.33659 5.95149 3.31814C5.90683 3.292 5.86616 3.2688 5.83399 3.25044L5.83018 3.24827C5.81675 3.2406 5.80489 3.23383 5.79497 3.22811L5.79399 3.22755L5.78621 3.22324L5.78252 3.22122C5.77521 3.21721 5.76546 3.21183 5.75553 3.20631C5.7439 3.19984 5.72979 3.19189 5.71606 3.18385C5.70855 3.17946 5.69455 3.17122 5.67887 3.16104C5.65961 3.14956 5.63893 3.13846 5.61432 3.12524L5.61323 3.12464C5.58379 3.11071 5.54715 3.09325 5.50827 3.07469C5.43509 3.0398 5.3539 3.0011 5.29756 2.9749L5.29149 2.97207L5.26602 2.95934C5.17678 2.91797 5.06995 2.87747 4.95032 2.83211L4.94991 2.83195C4.92386 2.82208 4.89721 2.81197 4.86999 2.80158C4.7962 2.77509 4.71958 2.75098 4.63931 2.72572L4.63912 2.72566C4.6222 2.72034 4.60512 2.71496 4.58788 2.7095ZM2.38955 5.27574C2.99013 5.57881 3.63358 5.79268 4.29562 5.91068C5.12436 6.06262 5.97346 6.05757 6.79978 5.90858C7.27013 5.82366 7.72932 5.68841 8.1696 5.50818C8.36558 5.83396 8.53041 6.17727 8.66153 6.53368C6.68448 7.24576 4.9592 8.8547 4.27685 11.1003C2.95196 10.2183 2.07894 8.71129 2.07894 7.00033C2.07894 6.39356 2.18874 5.81243 2.38955 5.27574Z" fill="#B8509A"/>
</svg>
