<svg width="14" height="14" viewBox="0 0 14 14" fill="none" xmlns="http://www.w3.org/2000/svg">
<g clip-path="url(#clip0_428_31240)">
<path d="M14 6.99952C14 3.13353 10.866 -0.000480652 7 -0.000480652C3.13401 -0.000480652 0 3.13353 0 6.99952C0 10.2824 2.26002 13.0369 5.30896 13.7934V9.1386H3.86551V6.99952H5.30896V6.07778C5.30896 3.69521 6.38719 2.59089 8.72631 2.59089C9.16977 2.59089 9.93498 2.67783 10.248 2.7648V4.70391C10.0828 4.68652 9.79585 4.67781 9.43933 4.67781C8.29152 4.67781 7.84803 5.1126 7.84803 6.24301V6.99952H10.1345L9.7417 9.1386H7.84803V13.9482C11.314 13.5296 14 10.5784 14 6.99952Z" fill="#0866FF"/>
<path d="M9.74191 9.13909L10.1347 7H7.84827V6.24347C7.84827 5.11306 8.29174 4.6783 9.43954 4.6783C9.79606 4.6783 10.083 4.68698 10.2482 4.70437V2.76529C9.93519 2.67832 9.16998 2.59135 8.72652 2.59135C6.38743 2.59135 5.30918 3.6957 5.30918 6.07827V7H3.86572V9.13909H5.30918V13.7939C5.85078 13.9282 6.41708 14 7.00021 14C7.28732 14 7.57023 13.9823 7.84827 13.9487V9.13909H9.74191Z" fill="white"/>
</g>
<defs>
<clipPath id="clip0_428_31240">
<rect width="14" height="14" fill="white"/>
</clipPath>
</defs>
</svg>
