<svg width="14" height="14" viewBox="0 0 14 14" fill="none" xmlns="http://www.w3.org/2000/svg">
<g clip-path="url(#clip0_428_31201)">
<path d="M4.66687 13.9997C5.95488 13.9997 7.00024 12.9544 7.00024 11.6664V9.33301H4.66687C3.37886 9.33301 2.3335 10.3784 2.3335 11.6664C2.3335 12.9544 3.37886 13.9997 4.66687 13.9997Z" fill="#0ACF83"/>
<path d="M2.3335 7.00034C2.3335 5.71234 3.37886 4.66699 4.66687 4.66699H7.00024V9.33364H4.66687C3.37886 9.3337 2.3335 8.28834 2.3335 7.00034Z" fill="#A259FF"/>
<path d="M2.3335 2.33335C2.3335 1.04535 3.37886 0 4.66687 0H7.00024V4.66665H4.66687C3.37886 4.66665 2.3335 3.62135 2.3335 2.33335Z" fill="#F24E1E"/>
<path d="M7 0H9.33337C10.6214 0 11.6667 1.04535 11.6667 2.33335C11.6667 3.62135 10.6214 4.66665 9.33337 4.66665H7V0Z" fill="#FF7262"/>
<path d="M11.6667 7.00034C11.6667 8.28835 10.6214 9.3337 9.33337 9.3337C8.04536 9.3337 7 8.28835 7 7.00034C7 5.71234 8.04536 4.66699 9.33337 4.66699C10.6214 4.66699 11.6667 5.71234 11.6667 7.00034Z" fill="#1ABCFE"/>
</g>
<defs>
<clipPath id="clip0_428_31201">
<rect width="14" height="14" fill="white"/>
</clipPath>
</defs>
</svg>
