<svg width="14" height="14" viewBox="0 0 14 14" fill="none" xmlns="http://www.w3.org/2000/svg">
<g clip-path="url(#clip0_428_31144)">
<path fill-rule="evenodd" clip-rule="evenodd" d="M7.00579 0C3.13177 0 0 3.15486 0 7.05785C0 10.1777 2.00663 12.8186 4.79036 13.7533C5.1384 13.8236 5.26589 13.6015 5.26589 13.4146C5.26589 13.251 5.25442 12.6901 5.25442 12.1058C3.30557 12.5265 2.89974 11.2644 2.89974 11.2644C2.58655 10.4465 2.1225 10.2362 2.1225 10.2362C1.48465 9.80386 2.16896 9.80386 2.16896 9.80386C2.87651 9.85061 3.24778 10.5283 3.24778 10.5283C3.87402 11.6033 4.88315 11.2996 5.28912 11.1126C5.34705 10.6568 5.53276 10.3413 5.72994 10.1661C4.1756 10.0025 2.54023 9.39488 2.54023 6.68385C2.54023 5.91263 2.81844 5.28166 3.25926 4.79094C3.1897 4.6157 2.94606 3.89109 3.32895 2.92125C3.32895 2.92125 3.92048 2.73426 5.25427 3.64572C5.82531 3.49123 6.41422 3.41264 7.00579 3.41198C7.59733 3.41198 8.20034 3.49386 8.75717 3.64572C10.0911 2.73426 10.6826 2.92125 10.6826 2.92125C11.0655 3.89109 10.8217 4.6157 10.7522 4.79094C11.2046 5.28166 11.4714 5.91263 11.4714 6.68385C11.4714 9.39488 9.83599 9.99072 8.27003 10.1661C8.52529 10.3881 8.74555 10.8087 8.74555 11.4748C8.74555 12.4212 8.73408 13.1809 8.73408 13.4145C8.73408 13.6015 8.86171 13.8236 9.2096 13.7535C11.9933 12.8185 14 10.1777 14 7.05785C14.0114 3.15486 10.8682 0 7.00579 0Z" fill="#24292F"/>
</g>
<defs>
<clipPath id="clip0_428_31144">
<rect width="14" height="14" fill="white"/>
</clipPath>
</defs>
</svg>
