<svg width="14" height="14" viewBox="0 0 14 14" fill="none" xmlns="http://www.w3.org/2000/svg">
<g clip-path="url(#clip0_428_31148)">
<path d="M13.8487 7.90909L13.0793 5.54145L11.5545 0.84893C11.4762 0.607648 11.1345 0.607648 11.0562 0.84893L9.53155 5.54145H4.4688L2.94411 0.84893C2.86569 0.607648 2.52411 0.607648 2.44569 0.84893L0.92111 5.54156L0.151657 7.90909C0.117435 8.01435 0.117416 8.12775 0.151604 8.23302C0.185792 8.3383 0.252431 8.43005 0.341969 8.49512L7.00017 13.3323L13.6583 8.49501C13.7478 8.42993 13.8144 8.3382 13.8486 8.23295C13.8828 8.1277 13.8829 8.01434 13.8487 7.90909Z" fill="#FC6D26"/>
<path d="M7.00012 13.3318L9.5315 5.54102H4.46875L7.00012 13.3318Z" fill="#E24329"/>
<path d="M6.99996 13.3318L4.46859 5.54102H0.920898L6.99996 13.3318Z" fill="#FC6D26"/>
<path d="M0.920741 5.54102L0.151178 7.90866C0.116947 8.0139 0.116925 8.12729 0.151114 8.23255C0.185303 8.33781 0.251948 8.42953 0.341491 8.49458L6.9998 13.3319L0.920741 5.54113V5.54102Z" fill="#FCA326"/>
<path d="M0.920898 5.54145H4.46859L2.9439 0.84893C2.86548 0.607648 2.5239 0.607648 2.44548 0.84893L0.920898 5.54155V5.54145Z" fill="#E24329"/>
<path d="M7 13.3318L9.53137 5.54102H13.0792L7 13.3318Z" fill="#FC6D26"/>
<path d="M13.0791 5.54102L13.8485 7.90866C13.8827 8.0139 13.8828 8.12729 13.8486 8.23255C13.8144 8.33781 13.7477 8.42953 13.6582 8.49458L7 13.3319L13.0791 5.54113V5.54102Z" fill="#FCA326"/>
<path d="M13.0788 5.54134H9.53125L11.0559 0.84893C11.1344 0.607648 11.4759 0.607648 11.5544 0.84893L13.079 5.54145L13.0788 5.54134Z" fill="#E24329"/>
</g>
<defs>
<clipPath id="clip0_428_31148">
<rect width="14" height="14" fill="white"/>
</clipPath>
</defs>
</svg>
