<svg width="14" height="14" viewBox="0 0 14 14" fill="none" xmlns="http://www.w3.org/2000/svg">
<g clip-path="url(#clip0_428_31169)">
<path d="M6.99958 0C6.19866 0 1.28058 2.8105 0.882747 3.5C0.484913 4.1895 0.48258 9.81108 0.882747 10.5C1.28291 11.1889 6.19983 14 6.99958 14C7.79933 14 12.7162 11.186 13.117 10.5C13.5172 9.814 13.5172 4.1825 13.117 3.5C12.7162 2.8175 7.79991 0 6.99958 0ZM8.65683 11.3254V11.3266C8.54716 11.3266 7.52575 10.3483 7.60683 10.2684C7.63075 10.2445 7.7795 10.2282 8.09216 10.2182C8.09216 9.50075 8.1085 8.34283 8.11841 7.85808C8.11958 7.80267 8.10616 7.76417 8.10616 7.69825H5.89708C5.89708 7.8925 5.88425 8.68817 5.935 9.69092C5.94141 9.81517 5.89125 9.85367 5.77633 9.85308C5.49633 9.8525 5.21633 9.85017 4.93633 9.85075C4.82316 9.85075 4.77416 9.80875 4.77766 9.68392C4.80275 8.76983 4.85933 7.38675 4.77358 3.86867V3.78175C4.50525 3.77242 4.31975 3.7555 4.29525 3.73158C4.21475 3.65167 5.25016 2.67342 5.35925 2.67342C5.46833 2.67342 6.49733 3.65167 6.41683 3.73158C6.39291 3.7555 6.19866 3.77242 5.95308 3.78175V3.86808C5.88658 4.57217 5.89708 6.0445 5.88075 6.74975H8.09916C8.09916 6.6255 8.10966 5.80008 8.06591 4.4625C8.063 4.36975 8.09275 4.32133 8.182 4.32017C8.48825 4.31783 8.79391 4.31667 9.10075 4.31842C9.19641 4.319 9.22675 4.36567 9.225 4.46542C9.12408 9.69617 9.20691 9.331 9.20691 10.2171C9.45191 10.2264 9.67183 10.2433 9.69575 10.2672C9.77508 10.3466 8.7665 11.3254 8.65683 11.3254Z" fill="#2FC363"/>
</g>
<defs>
<clipPath id="clip0_428_31169">
<rect width="14" height="14" fill="white"/>
</clipPath>
</defs>
</svg>
