<svg width="14" height="14" viewBox="0 0 14 14" fill="none" xmlns="http://www.w3.org/2000/svg">
<path d="M12.8333 8.37403C12.8333 7.9412 12.5043 7.58887 12.0983 7.58887H6.22768C5.82168 7.58887 5.49268 7.9412 5.49268 8.37403C5.49268 8.80687 5.82109 9.1592 6.22768 9.1592H12.0983C12.5043 9.15978 12.8333 8.80745 12.8333 8.37403Z" fill="#B3B1B0"/>
<path d="M2.031 10.6093L4.54692 13.1532C5.1145 13.7243 5.89909 14.0002 6.76534 14.0002C7.63159 14.0002 8.41617 13.7015 8.98492 13.1287L10.4946 11.5904C10.7921 11.2906 10.7816 10.7942 10.4718 10.4821C10.1621 10.17 9.66975 10.1595 9.37284 10.4594L7.81184 11.9801C7.54234 12.2525 7.169 12.3663 6.75659 12.3663C6.34417 12.3663 5.97142 12.2525 5.70075 11.9801L3.19359 9.43502C2.9235 9.1626 2.78759 8.76419 2.78759 8.34827C2.78759 7.93235 2.9235 7.55669 3.19359 7.28427L5.69317 4.72927C5.96325 4.45685 6.34417 4.35302 6.756 4.35302C7.16784 4.35302 7.54117 4.46677 7.81125 4.73919L9.37225 6.25935C9.66975 6.55977 10.1621 6.54927 10.4718 6.23719C10.7816 5.92452 10.7921 5.4281 10.4946 5.12827L8.98492 3.5906C8.60113 3.2071 8.11787 2.9384 7.58959 2.81477L7.56975 2.81069L8.99717 1.3506C9.29584 1.05077 9.28534 0.55377 8.97559 0.241686C8.66584 -0.070397 8.17292 -0.0803137 7.87484 0.21952L2.031 6.11119C1.46342 6.68402 1.1665 7.47444 1.1665 8.34827C1.1665 9.2221 1.46342 10.0376 2.031 10.6093Z" fill="#E7A41F"/>
<path d="M4.73392 13.3078C4.63226 13.251 4.53916 13.1801 4.45742 13.0972C3.68334 12.3196 2.90576 11.5455 2.13342 10.7656C0.973173 9.59425 0.79059 7.88567 1.67492 6.49559C1.81622 6.28311 1.98034 6.08672 2.16434 5.90992L7.77776 0.284838C8.14234 -0.0803282 8.65159 -0.0954949 8.99051 0.245755C9.31717 0.574172 9.29792 1.09451 8.94501 1.45092C8.49642 1.90359 8.04726 2.35509 7.59809 2.80717C7.57417 2.87834 7.51642 2.92384 7.46684 2.97459C6.96342 3.48559 6.44601 3.98317 5.94959 4.50175C5.88484 4.56942 5.79676 4.61025 5.73259 4.67967C4.90251 5.50975 4.06251 6.3305 3.24409 7.17167C2.58201 7.85242 2.60417 8.88551 3.28376 9.57909C4.04676 10.3584 4.82317 11.1249 5.59434 11.8973C5.63342 11.9363 5.67367 11.9743 5.71334 12.0128C5.98634 12.1895 5.98984 12.7419 5.82009 12.9875C5.63284 13.2588 5.38842 13.425 5.04251 13.4122C4.92642 13.4087 4.83076 13.362 4.73392 13.3078Z" fill="#070706"/>
</svg>
