<svg width="14" height="14" viewBox="0 0 14 14" fill="none" xmlns="http://www.w3.org/2000/svg">
<path d="M3.94849 10.8825C6.12905 10.8825 7.89684 9.0994 7.89684 6.89982C7.89684 4.70023 6.12918 2.91699 3.94849 2.91699C1.76779 2.91699 0 4.70064 0 6.89982C0 9.099 1.76793 10.8825 3.94849 10.8825Z" fill="black"/>
<path d="M12.2283 6.89983C12.2283 8.97026 11.3444 10.6493 10.2541 10.6493C9.16371 10.6493 8.27982 8.97026 8.27982 6.89983C8.27982 4.82939 9.16358 3.1503 10.2539 3.1503C11.3443 3.1503 12.2283 4.82885 12.2283 6.89983Z" fill="black"/>
<path d="M14 6.89982C14 8.75443 13.6892 10.2588 13.3056 10.2588C12.9221 10.2588 12.6114 8.75483 12.6114 6.89982C12.6114 5.04482 12.9223 3.54084 13.3056 3.54084C13.689 3.54084 14 5.04468 14 6.89982Z" fill="black"/>
</svg>
