<svg width="14" height="14" viewBox="0 0 14 14" fill="none" xmlns="http://www.w3.org/2000/svg">
<g clip-path="url(#clip0_428_31226)">
<g clip-path="url(#clip1_428_31226)">
<path d="M2.60099 2.45452C3.03616 2.80802 3.19949 2.78119 4.01732 2.72636L11.7261 2.26377C11.8894 2.26377 11.7535 2.10044 11.6992 2.07361L10.4182 1.14786C10.1732 0.957689 9.84599 0.739522 9.21949 0.793772L1.75574 1.33861C1.48391 1.36544 1.42907 1.50194 1.53757 1.61044L2.60099 2.45452ZM3.06357 4.25119V12.3619C3.06357 12.7976 3.28116 12.9609 3.77174 12.9335L12.2435 12.4435C12.7341 12.4167 12.7889 12.1169 12.7889 11.7628V3.70636C12.7889 3.35286 12.653 3.16211 12.3526 3.18894L3.49932 3.70636C3.17266 3.73377 3.06357 3.89711 3.06357 4.25061V4.25119ZM11.4268 4.68577C11.4811 4.93077 11.4268 5.17577 11.1818 5.20377L10.7735 5.28544V11.2728C10.4188 11.4635 10.0922 11.5726 9.81974 11.5726C9.38341 11.5726 9.27432 11.4361 8.94766 11.0284L6.27774 6.83652V10.8919L7.12241 11.0832C7.12241 11.0832 7.12241 11.5732 6.44107 11.5732L4.56157 11.6817C4.50732 11.5732 4.56157 11.3008 4.75232 11.2465L5.24232 11.1106V5.74802L4.56274 5.69319C4.50791 5.44819 4.64441 5.09469 5.02532 5.06727L7.04132 4.93136L9.82032 9.17744V5.42077L9.11157 5.33969C9.05732 5.03986 9.27491 4.82227 9.54732 4.79544L11.4268 4.68577ZM1.12924 0.603605L8.89341 0.0319386C9.84657 -0.049728 10.0922 0.00452198 10.6912 0.440272L13.1698 2.18211C13.5782 2.48136 13.7147 2.56302 13.7147 2.88969V12.4435C13.7147 13.042 13.4971 13.3967 12.7347 13.4504L3.71749 13.9952C3.14582 14.0226 2.87282 13.9409 2.57299 13.5594L0.74774 11.1911C0.421073 10.7554 0.285156 10.4293 0.285156 10.0478V1.55561C0.285156 1.06619 0.503323 0.657272 1.12924 0.603605Z" fill="#2F3437"/>
<path d="M2.60099 2.45452C3.03616 2.80802 3.19949 2.78119 4.01732 2.72636L11.7261 2.26377C11.8894 2.26377 11.7535 2.10044 11.6992 2.07361L10.4182 1.14786C10.1732 0.957689 9.84599 0.739522 9.21949 0.793772L1.75574 1.33861C1.48391 1.36544 1.42907 1.50194 1.53757 1.61044L2.60099 2.45452Z" fill="white"/>
<path fill-rule="evenodd" clip-rule="evenodd" d="M3.06357 4.25119V12.3619C3.06357 12.7976 3.28116 12.9609 3.77174 12.9335L12.2435 12.4435C12.7341 12.4167 12.7889 12.1169 12.7889 11.7628V3.70636C12.7889 3.35286 12.653 3.16211 12.3526 3.18894L3.49932 3.70636C3.17266 3.73377 3.06357 3.89711 3.06357 4.25061V4.25119ZM11.1818 5.20377C11.4268 5.17577 11.4811 4.93077 11.4268 4.68577L9.54732 4.79544C9.27491 4.82227 9.05732 5.03986 9.11157 5.33969L9.82032 5.42077V9.17744L7.04132 4.93136L5.02532 5.06727C4.64441 5.09469 4.50791 5.44819 4.56274 5.69319L5.24232 5.74802V11.1106L4.75232 11.2465C4.56157 11.3008 4.50732 11.5732 4.56157 11.6817L6.44107 11.5732C7.12241 11.5732 7.12241 11.0832 7.12241 11.0832L6.27774 10.8919V6.83652L8.94766 11.0284L8.94827 11.0291C9.27446 11.4363 9.38368 11.5726 9.81974 11.5726C10.0922 11.5726 10.4188 11.4635 10.7735 11.2728V5.28544L11.1818 5.20377Z" fill="white"/>
</g>
</g>
<defs>
<clipPath id="clip0_428_31226">
<rect width="14" height="14" fill="white"/>
</clipPath>
<clipPath id="clip1_428_31226">
<rect width="14" height="14" fill="white"/>
</clipPath>
</defs>
</svg>
