<svg width="14" height="14" viewBox="0 0 14 14" fill="none" xmlns="http://www.w3.org/2000/svg">
<g clip-path="url(#clip0_428_31196)">
<path d="M7 14C10.866 14 14 10.866 14 7C14 3.13401 10.866 0 7 0C3.13401 0 0 3.13401 0 7C0 10.866 3.13401 14 7 14Z" fill="white"/>
<path d="M7 0C3.13416 0 0 3.13416 0 7C0 9.96708 1.84362 12.5021 4.44774 13.5218C4.38436 12.9687 4.33251 12.116 4.47078 11.5111C4.59753 10.9638 5.28889 8.03127 5.28889 8.03127C5.28889 8.03127 5.08148 7.6107 5.08148 6.99424C5.08148 6.02058 5.64609 5.29465 6.34897 5.29465C6.94815 5.29465 7.23621 5.74403 7.23621 6.27984C7.23621 6.87901 6.85597 7.77778 6.65432 8.61317C6.48724 9.31029 7.00576 9.88066 7.69136 9.88066C8.9358 9.88066 9.89218 8.56708 9.89218 6.67737C9.89218 5.00082 8.68807 3.83128 6.96543 3.83128C4.97202 3.83128 3.80247 5.32346 3.80247 6.86749C3.80247 7.46667 4.03292 8.11193 4.32099 8.46337C4.3786 8.53251 4.38436 8.59588 4.36708 8.66502C4.31523 8.88395 4.19424 9.36214 4.17119 9.46008C4.14239 9.58683 4.06749 9.61564 3.93498 9.55226C3.05926 9.14321 2.51193 7.86996 2.51193 6.83868C2.51193 4.6321 4.11358 2.60412 7.13827 2.60412C9.56379 2.60412 11.4535 4.33251 11.4535 6.64856C11.4535 9.06255 9.93251 11.0041 7.82387 11.0041C7.11523 11.0041 6.44691 10.6354 6.22222 10.1975C6.22222 10.1975 5.87078 11.5342 5.78436 11.8626C5.62881 12.4733 5.20247 13.2337 4.9144 13.7004C5.57119 13.9021 6.26255 14.0115 6.98848 14.0115C10.8543 14.0115 13.9885 10.8774 13.9885 7.01152C14 3.13416 10.8658 0 7 0Z" fill="#E60019"/>
</g>
<defs>
<clipPath id="clip0_428_31196">
<rect width="14" height="14" fill="white"/>
</clipPath>
</defs>
</svg>
