<svg width="14" height="14" viewBox="0 0 14 14" fill="none" xmlns="http://www.w3.org/2000/svg">
<path d="M7.64935 10.9464C7.2127 10.0911 6.70046 9.22723 5.70126 9.22723C5.51026 9.22723 5.31948 9.25872 5.14441 9.33824L4.80497 8.66218C5.21862 8.30896 5.88703 8.02893 6.74622 8.02893C8.08282 8.02893 8.76876 8.66965 9.31332 9.48755C9.63659 8.78928 9.79027 7.84632 9.79027 6.67748C9.79027 3.75866 8.87302 2.25994 6.73052 2.25994C4.6192 2.25994 3.70696 3.75866 3.70696 6.67748C3.70696 9.58089 4.6192 11.0642 6.73052 11.0642C7.06609 11.0642 7.37001 11.0275 7.64935 10.9464ZM8.17274 11.965C7.70239 12.0909 7.21758 12.1554 6.73052 12.1567C3.91914 12.1567 1.1665 9.92414 1.1665 6.67748C1.1665 3.40001 3.91914 1.16699 6.73052 1.16699C9.58901 1.16699 12.3152 3.38392 12.3152 6.67748C12.3152 8.50947 11.4563 9.99822 10.2078 10.9604C10.6112 11.562 11.0265 11.9614 11.6047 11.9614C12.2358 11.9614 12.4903 11.4761 12.5329 11.0955H13.3547C13.4028 11.6023 13.148 13.7087 10.8512 13.7087C9.45993 13.7087 8.72436 12.9062 8.17274 11.965Z" fill="#B92B27"/>
</svg>
