<svg width="14" height="14" viewBox="0 0 14 14" fill="none" xmlns="http://www.w3.org/2000/svg">
<g clip-path="url(#clip0_428_31217)">
<path d="M7 0C3.13414 0 0 3.13414 0 7C0 8.9332 0.783672 10.6832 2.05023 11.9498L0.716953 13.283C0.452266 13.5477 0.639844 14 1.01391 14H7C10.8659 14 14 10.8659 14 7C14 3.13414 10.8659 0 7 0Z" fill="#FF4500"/>
<path d="M8.42432 3.30121C8.54572 3.81582 9.00783 4.19918 9.55963 4.19918C10.2038 4.19918 10.7261 3.67691 10.7261 3.0327C10.7261 2.38848 10.2038 1.86621 9.55963 1.86621C8.99635 1.86621 8.52658 2.26543 8.41721 2.79645C7.47385 2.89762 6.73721 3.6977 6.73721 4.6673C6.73721 4.66949 6.73721 4.67113 6.73721 4.67332C5.71127 4.71652 4.77447 5.00855 4.03072 5.46957C3.75455 5.25574 3.40783 5.12832 3.03158 5.12832C2.12869 5.12832 1.39697 5.86004 1.39697 6.76293C1.39697 7.41809 1.78197 7.98246 2.33814 8.24332C2.39229 10.141 4.46002 11.6673 7.00354 11.6673C9.54705 11.6673 11.6175 10.1393 11.6689 8.24004C12.2207 7.97754 12.6024 7.4148 12.6024 6.76348C12.6024 5.86059 11.8707 5.12887 10.9678 5.12887C10.5932 5.12887 10.2481 5.2552 9.97252 5.46738C9.22221 5.00309 8.27502 4.71105 7.23869 4.67223C7.23869 4.67059 7.23869 4.66949 7.23869 4.66785C7.23869 3.97332 7.75494 3.39691 8.42432 3.3023V3.30121ZM3.9651 7.80035C3.99244 7.20754 4.38619 6.75254 4.84393 6.75254C5.30166 6.75254 5.65166 7.23324 5.62432 7.82606C5.59697 8.41887 5.25518 8.63434 4.79689 8.63434C4.33861 8.63434 3.93775 8.39316 3.9651 7.80035ZM9.16369 6.75254C9.62197 6.75254 10.0157 7.20754 10.0425 7.80035C10.0699 8.39316 9.66846 8.63434 9.21072 8.63434C8.75299 8.63434 8.41064 8.41941 8.3833 7.82606C8.35596 7.23324 8.70541 6.75254 9.16369 6.75254ZM8.619 9.17191C8.70486 9.18066 8.75955 9.26981 8.72619 9.34965C8.44455 10.0229 7.77955 10.4959 7.00354 10.4959C6.22752 10.4959 5.56307 10.0229 5.28088 9.34965C5.24752 9.26981 5.30221 9.18066 5.38807 9.17191C5.89119 9.12106 6.43533 9.09316 7.00354 9.09316C7.57174 9.09316 8.11533 9.12106 8.619 9.17191Z" fill="white"/>
</g>
<defs>
<clipPath id="clip0_428_31217">
<rect width="14" height="14" fill="white"/>
</clipPath>
</defs>
</svg>
