<svg width="14" height="14" viewBox="0 0 14 14" fill="none" xmlns="http://www.w3.org/2000/svg">
<path d="M10.3202 6.48873C10.2599 6.45983 10.1987 6.43201 10.1366 6.40537C10.0286 4.41424 8.94059 3.27432 7.11373 3.26266C7.10545 3.2626 7.09722 3.26261 7.08894 3.26261C5.99624 3.26261 5.08746 3.72902 4.52811 4.57776L5.53283 5.26697C5.95068 4.633 6.60647 4.49785 7.08942 4.49785C7.095 4.49785 7.1006 4.49785 7.10612 4.4979C7.70764 4.50174 8.16155 4.67663 8.45533 5.01769C8.66912 5.26599 8.81211 5.60911 8.88291 6.04215C8.3496 5.95151 7.77283 5.92364 7.15624 5.95899C5.41935 6.05904 4.30273 7.07203 4.37772 8.47962C4.41578 9.19362 4.77148 9.80787 5.37926 10.2091C5.89314 10.5483 6.55497 10.7142 7.24282 10.6767C8.15119 10.6269 8.86381 10.2803 9.36095 9.64658C9.73851 9.16533 9.97732 8.54168 10.0828 7.75585C10.5157 8.01711 10.8365 8.36092 11.0137 8.77421C11.315 9.47676 11.3325 10.6312 10.3905 11.5725C9.56519 12.397 8.57309 12.7537 7.07374 12.7647C5.41056 12.7524 4.15272 12.219 3.33491 11.1794C2.56909 10.2059 2.17332 8.79973 2.15855 7C2.17332 5.20026 2.56909 3.79412 3.33491 2.82061C4.15272 1.78098 5.41054 1.2476 7.07372 1.23524C8.74896 1.2477 10.0287 1.78364 10.8778 2.82829C11.2942 3.34057 11.6081 3.98481 11.815 4.73596L12.9924 4.42183C12.7416 3.49724 12.3469 2.70052 11.8098 2.03977C10.7212 0.700487 9.12915 0.0142295 7.07782 0H7.06961C5.02245 0.0141801 3.44822 0.703048 2.39065 2.04745C1.44956 3.2438 0.964116 4.90844 0.947805 6.99508L0.947754 7L0.947805 7.00492C0.964116 9.09154 1.44956 10.7562 2.39065 11.9526C3.44822 13.2969 5.02245 13.9859 7.06961 14H7.07782C8.89786 13.9874 10.1808 13.5109 11.2376 12.455C12.6203 11.0736 12.5787 9.34201 12.123 8.27903C11.796 7.51676 11.1726 6.89764 10.3202 6.48873ZM7.17779 9.44322C6.41654 9.48609 5.62568 9.14441 5.58668 8.41254C5.55778 7.8699 5.97286 7.2644 7.22451 7.19227C7.36785 7.184 7.5085 7.17996 7.64668 7.17996C8.10132 7.17996 8.52664 7.22412 8.91332 7.30866C8.76909 9.10984 7.92311 9.40231 7.17779 9.44322Z" fill="black"/>
</svg>
