<svg width="14" height="14" viewBox="0 0 14 14" fill="none" xmlns="http://www.w3.org/2000/svg">
<path d="M12.8275 4.53979C12.7756 5.61324 11.9824 7.08314 10.4482 8.94872C8.862 10.8975 7.51998 11.8718 6.42214 11.8718C5.74232 11.8718 5.16656 11.2785 4.69663 10.0916C4.38256 9.00364 4.06884 7.91577 3.75489 6.8278C3.4057 5.64153 3.03132 5.04763 2.63103 5.04763C2.54376 5.04763 2.23833 5.2212 1.71542 5.56702L1.1665 4.8986C1.74226 4.42037 2.31031 3.94226 2.86915 3.46348C3.63705 2.83623 4.21351 2.50637 4.59769 2.47302C5.50572 2.39058 6.06455 2.97722 6.27432 4.23305C6.50101 5.58793 6.65781 6.43069 6.74601 6.76055C7.00769 7.88463 7.29563 8.44595 7.61028 8.44595C7.85446 8.44595 8.22127 8.08142 8.71034 7.35236C9.19894 6.62308 9.46063 6.06825 9.49598 5.6871C9.56551 5.05775 9.30371 4.74231 8.71034 4.74231C8.43104 4.74231 8.1431 4.80307 7.84688 4.92315C8.42019 3.14793 9.51569 2.2858 11.1327 2.335C12.3315 2.36824 12.8966 3.10313 12.8275 4.53979Z" fill="#17D5FF"/>
</svg>
